<?xml version="1.0" standalone="no"?>
<!DOCTYPE svg PUBLIC "-//W3C//DTD SVG 1.1//EN" "http://www.w3.org/Graphics/SVG/1.1/DTD/svg11.dtd" >
<svg xmlns="http://www.w3.org/2000/svg">
<metadata></metadata>
<defs>
<font id="AveriaRegular" horiz-adv-x="1046" >
<font-face units-per-em="2048" ascent="1594" descent="-454" />
<missing-glyph horiz-adv-x="658" />
<glyph horiz-adv-x="0" />
<glyph horiz-adv-x="2048" />
<glyph unicode=" "  horiz-adv-x="658" />
<glyph unicode="&#x09;" horiz-adv-x="658" />
<glyph unicode="&#xa0;" horiz-adv-x="658" />
<glyph unicode="!" horiz-adv-x="633" d="M206 111v36l4 29q0 72 75 72l24 3h16l27 -4q24 0 50.5 -22t26.5 -63l3 -18l2 -22v-14l-1 -4l-3 -30q-1 -4 -1 -9q0 -70 -72 -70q-6 -2 -11 -2l-20 -2h-8q-109 0 -109 98zM216 1300q0 80 26 104t92 24h11q45 0 66 -21t21 -73v-67l-1 -11l-5 -117q-1 -12 -1 -24l-2 -24 q-1 -12 -1 -24l-2 -24q-1 -12 -1 -24l-12 -171l-3 -36q-3 -36 -3 -49l-3 -37q-3 -38 -3 -48l-2 -24q-4 -48 -5 -72t-2 -42t-1 -29q0 -112 -61 -112h-21q-46 0 -46 112q-2 24 -2 36l-2 24l-7 144l-2 24q-1 12 -1 24l-2 24q-3 36 -3 60q-2 24 -2 37l-2 24q-3 36 -4 61t-2 42.5 t-1 30.5l-2 24l-1 36l-4 72l-2 47v23z" />
<glyph unicode="&#x22;" horiz-adv-x="813" d="M139 1357q0 60 19.5 77t51.5 17l6 1l7 1l26 1l6 -1q77 0 77 -64v-19l-1 -7l-6 -92q-6 -42 -6 -62l-3 -21q-2 -14 -2 -20l-3 -21q-3 -21 -3 -27l-7 -55q0 -72 -22 -116q-14 -28 -63 -28t-49 64q-2 14 -2 20l-2 14l-2 27l-1 7l-4 55l-1 7l-2 27l-1 7l-3 41q-1 7 -1 14 l-8 120v14zM488 1359v13q0 48 19.5 65t68.5 17h24q12 -2 18 -2q52 0 52 -47v-44l-1 -7l-3 -46l-4 -40l-2 -27q-15 -105 -15 -123l-4 -28q-3 -21 -3 -27l-3 -21q-3 -21 -3 -27q0 -94 -63 -94h-12q-47 0 -47 121l-5 68l-1 7l-2 27l-1 7l-3 41q-1 7 -1 14l-3 34v13l-5 74v13z " />
<glyph unicode="#" horiz-adv-x="1214" d="M124 471q0 43 39 64l28 9l31 6l31 5q53 12 72 38q40 53 40 190q0 35 -12.5 48.5t-50.5 20.5l-30 4q-46 7 -58 12q-35 15 -35 50.5t20.5 51t98 26.5t101.5 36.5t47 150.5t29 142q21 58 61 58h30q37 0 37 -42.5t-21 -154t-21 -135t19 -34t104 -10.5t99 17.5t36.5 136 t38.5 157.5q24 59 87 59q42 0 42 -47q0 -4 -19 -105t-19 -142t16.5 -54.5t76.5 -31.5t60 -45v-26q0 -46 -92 -60t-108 -31q-47 -48 -47 -222q0 -45 95.5 -55.5t95.5 -58t-36 -65.5q-8 -4 -84.5 -13.5t-100.5 -44t-47 -157t-33 -144.5q-21 -47 -68 -47q-59 0 -59 59l47 269 q0 32 -19 41.5t-103.5 9.5t-104.5 -26q-11 -14 -38.5 -150.5t-49.5 -173t-69.5 -36.5t-47.5 42q0 4 21.5 119.5t21.5 157.5t-28 58q-124 69 -124 73zM451 550q0 -9 26 -9h10l5 1l32 2l28 3l12 1l5 1l55 5q62 0 75 23q2 4 17 63l5 30q4 21 22.5 90t18.5 94v4q0 13 -58 13h-32 l-6 -1h-16l-11 -1h-11l-38 -4l-6 -1l-11 -1q-50 0 -60 -24q-62 -155 -62 -279v-10z" />
<glyph unicode="$" horiz-adv-x="1135" d="M155 266q0 55 59 55q19 0 101 -71.5t136.5 -71.5t69 46.5t14.5 194.5t-21.5 184.5t-119 96t-139.5 108.5q-79 91 -79 210t66 203t171 121l28 9q45 14 61.5 24.5t33 63.5t49.5 53q50 0 276 -189q70 -59 70 -142q0 -44 -49 -44q-25 0 -92.5 54t-128.5 54q-16 0 -34 -30 t-18 -175.5t22 -178t130 -99t165.5 -140t57.5 -194.5t-73 -218q-45 -61 -91.5 -86t-105 -46.5t-77.5 -36.5t-32 -80t-54 -65t-58.5 55t-43.5 78t-106 48.5t-115 58.5q-73 69 -73 150zM338 1047q3 -18 3 -26q0 -53 56 -118.5t97 -65.5q14 0 14 73v53l-1 5v11l-1 10v10l-2 21 v10l-1 11q0 201 -6 201h-4l-4 -1q-56 0 -103.5 -55.5t-47.5 -102.5v-36zM619 160q0 -20 13 -20h10q63 0 118 63t55 127v35q0 71 -43 114q-96 96 -134 96h-4q-8 0 -8 -116v-129l-1 -11v-23l-1 -11v-10l-1 -6v-11l-2 -22v-11l-1 -11v-11l-1 -16v-27z" />
<glyph unicode="%" horiz-adv-x="1635" d="M140 1021v57q0 144 82 238.5t188 94.5h11l10 -1q121 0 197 -95t76 -226v-48q0 -143 -80.5 -250t-186.5 -107h-41q-97 0 -176.5 99t-79.5 238zM301 1017l1 -8l1 -21l2 -28q0 -72 49 -135q26 -34 65 -34h11q51 0 86.5 64.5t35.5 125.5q2 14 2 21l2 29v30l-1 7v15 q-2 14 -2 21q0 69 -37.5 125.5t-80.5 56.5h-11q-38 0 -79 -52.5t-41 -143.5l-1 -7l-1 -8l-1 -29v-29zM349 5q0 9 44 87q372 657 730 1203q65 99 121 99h17q45 0 45 -19q0 -70 -764 -1276q-72 -114 -131 -114h-16q-46 0 -46 20zM954 319v23q0 139 69 246q35 55 91.5 88 t110.5 33h40q108 0 176.5 -100t68.5 -230v-35q-2 -24 -2 -35q0 -126 -84.5 -223.5t-194.5 -97.5h-20l-10 1q-108 0 -176.5 99.5t-68.5 230.5zM1117 305q0 -76 32.5 -147.5t87.5 -71.5h17q50 0 84.5 69t34.5 160v37l-1 7l-2 36q0 69 -38 126t-78 57h-16q-41 0 -79.5 -58 t-38.5 -135l-2 -14l-1 -22v-44z" />
<glyph unicode="&#x26;" horiz-adv-x="1456" d="M134 369v31q0 158 165 311q103 94 103 123q0 16 -38.5 116.5t-38.5 158.5q0 128 74.5 206.5t194 78.5t202 -78t82.5 -200q0 -58 -38.5 -215t-38.5 -195t39.5 -81t98.5 -43t126.5 58t123.5 58t56 -51q0 -18 -19 -57l-23 -42q-49 -94 -49 -208q0 -62 78 -137.5t78 -88.5 q0 -34 -75 -34q-12 0 -67.5 6t-111.5 6l-121 -7l-76 3q-66 0 -161 -24.5t-179 -24.5q-166 0 -270 92q-56 49 -85.5 118.5t-29.5 119.5zM323 408q0 -101 74 -182t181 -81h39q73 0 134 46t61 61t-152.5 213t-165.5 198h-6q-51 0 -122 -97q-43 -59 -43 -134v-24zM506 1110 q0 -81 66 -180q28 -42 43 -42l5 1q29 0 92 72t63 130l3 27v17l-1 6v11q-2 12 -2 17q0 45 -39 84t-80 39h-22q-49 0 -88.5 -45.5t-39.5 -105.5v-31z" />
<glyph unicode="'" horiz-adv-x="496" d="M157 1335v33q0 75 86 75h32q75 0 75 -53v-46l-1 -6l-2 -33l-1 -7l-3 -40q-1 -7 -2 -16.5t-3 -27.5t-2 -25l-8 -54q-7 -49 -7 -55q0 -92 -26 -144q-13 -26 -59 -26h-6q-50 0 -50 122l-2 35l-10 109z" />
<glyph unicode="(" horiz-adv-x="747" d="M158 566v67q0 144 43 304q71 267 248 471q91 105 141 105t50 -29q0 -19 -88.5 -162t-123.5 -252q-70 -214 -70 -472q0 -413 169 -685q110 -178 110 -193q0 -31 -49.5 -31t-141.5 102q-171 190 -245 470q-43 160 -43 305z" />
<glyph unicode=")" horiz-adv-x="743" d="M107 -276q0 6 91 153.5t128 261.5q68 209 68 465q0 404 -167 676q-115 186 -115 195q0 38 37 38q65 0 140 -86q299 -341 299 -804v-46q0 -126 -33 -268q-72 -310 -272 -533q-81 -90 -140 -90q-36 0 -36 38z" />
<glyph unicode="*" horiz-adv-x="936" d="M172 1202q0 56 68 56q26 0 92 -42.5t76.5 -42.5t10.5 14l-12 160q0 47 23 63q24 16 71 16t47 -73q0 -18 -9 -76.5t-9 -93.5q0 -15 27 -15q5 0 68 38.5t106 38.5t43 -44t-40 -88q-14 -15 -57 -35.5t-43 -27.5q0 -27 14 -51q53 -90 53 -112q0 -48 -45 -48l-96 16 q-12 0 -27 -30t-35 -30l-42 5q-30 -8 -39 -8q-17 0 -31 34t-27 34l-29 -3q-28 -2 -54 -4t-31 -2q-21 0 -21 62q0 31 43 71q37 41 37 74q0 6 -34.5 21.5t-49.5 30.5q-48 48 -48 92z" />
<glyph unicode="+" horiz-adv-x="1188" d="M121 590v36q0 37 30 46q17 5 111 5l114 3q130 0 140 18q4 7 4 114l5 151q0 77 12 102t58 25h39q41 0 51 -28q4 -11 4 -75v-82q-5 -90 -5 -112l-1 -56q0 -37 125 -37l73 2q38 2 56 2l73 3q57 0 57 -53v-18q0 -46 -19 -56t-146 -10l-170 -6q-55 0 -61.5 -11.5t-6.5 -79.5 v-97l-2 -37q-1 -18 -1 -76.5t-11.5 -84t-56.5 -25.5h-39q-40 0 -48 22t-8 125l4 110l2 37q2 38 2 63.5t-13.5 29.5t-108.5 4h-55q-38 -2 -57 -2l-37 -2q-19 -1 -55 -1q-59 0 -59 51z" />
<glyph unicode="," horiz-adv-x="574" d="M147 -247q0 11 29 50q72 97 72 163q0 11 -47 71q-26 33 -26 106q0 117 110 117h22q107 0 107 -111l2 -16v-39q0 -137 -85 -259.5t-153 -122.5q-31 0 -31 36v5z" />
<glyph unicode="-" horiz-adv-x="746" d="M91 524v20l1 7v13l2 26q0 34 40 40t248 6l139 2h86q49 0 49 -57l-1 -6v-13q0 -69 -38 -78q-24 -6 -261 -6h-14l-22 -1h-22l-22 -1h-15l-21 -1h-22l-29 -1h-49q-49 0 -49 50z" />
<glyph unicode="." horiz-adv-x="569" d="M161 97v32l1 5v9q3 14 3 17q0 39 27.5 66.5t70.5 27.5l9 2h30q56 0 80 -29t24 -85v-33l-4 -31q0 -33 -23.5 -61.5t-83.5 -28.5h-26l-33 5q-31 0 -53 26.5t-22 77.5z" />
<glyph unicode="/" horiz-adv-x="854" d="M46 -117q0 7 66 190q336 930 518 1343q40 90 106 90t66 -26t-46.5 -142t-95.5 -242l-28 -72q-18 -50 -34 -91l-76 -198q-14 -35 -21 -53l-77 -198q-19 -51 -48 -125l-35 -90q-128 -330 -132 -338q-33 -73 -98 -73t-65 25z" />
<glyph unicode="0" horiz-adv-x="1154" d="M143 644v87q1 121 33 255q64 261 222 360q82 51 162 51h54q78 0 156 -48q161 -98 219 -342q32 -135 32 -285l-1 -22v-22q0 -135 -32.5 -272.5t-91 -226.5t-136.5 -140t-164 -51h-36q-185 0 -298 174q-55 83 -87 215.5t-32 266.5zM344 645q0 -354 128 -476q43 -40 88 -40 h22q46 0 87 36t69 101q65 150 65 391v83q0 232 -59 376q-31 76 -75 108t-78 32h-23q-46 0 -89 -38t-73 -111q-62 -152 -62 -380v-82z" />
<glyph unicode="1" horiz-adv-x="1077" d="M255 1176q0 29 55 60q208 118 282 118h16q53 0 65 -85t12 -449t8.5 -428.5t56 -153t47.5 -130.5t-70 -81q-40 -22 -132.5 -22t-138.5 23q-97 49 -97 97.5t46 116t59.5 125.5t13.5 314.5t-39 352.5q-26 63 -105 90.5t-79 51.5z" />
<glyph unicode="2" horiz-adv-x="1129" d="M141 81q0 76 114 222q52 67 210.5 232.5t219 259t60.5 196t-60.5 160t-151.5 57.5t-182 -67q-14 -10 -68 -61t-80 -51q-56 0 -56 69q0 33 22 73q37 67 115 119q128 85 297 85t272.5 -103.5t103.5 -251.5t-98 -284q-54 -75 -250.5 -263t-196.5 -242q0 -47 142.5 -47 t250.5 12.5t113 12.5q74 0 74 -51v-24q0 -74 -48.5 -97t-163.5 -23l-30 1h-94l-318 4q-118 0 -147 6q-50 10 -50 56z" />
<glyph unicode="3" horiz-adv-x="1128" d="M131 164v22q0 52 70 52q11 0 118 -52.5t205.5 -52.5t171 70.5t72.5 182.5t-77 182q-51 46 -160 73.5t-110 27.5q-26 17 -26 60q0 33 99 70.5t154.5 103t55.5 145.5q0 166 -204 166q-71 0 -169 -50t-106 -50q-46 0 -46 52q0 80 122 144.5t283 64.5t245.5 -76.5 t84.5 -206.5t-107 -246q-72 -77 -72 -86q0 -4 76 -52q171 -107 171 -282v-33q0 -77 -36 -157q-69 -155 -240 -219q-95 -36 -188 -36h-32q-123 0 -239 56q-52 25 -84 63t-32 64z" />
<glyph unicode="4" horiz-adv-x="1153" d="M116 468v17q0 30 31 92q87 175 481 716q68 93 138 93t89 -39q10 -20 10 -122l-3 -114l-2 -46l-2 -114v-68q0 -206 23 -271.5t72.5 -104t49.5 -58.5q0 -74 -39 -109q-77 -70 -77 -85l7 -52q4 -30 4 -82.5t-28 -87.5t-107 -35h-40q-46 0 -70 42t-24 111l6 85q0 63 -141 103 q-42 12 -164.5 17.5t-154.5 18.5q-59 24 -59 93zM263 519.5q0 -9.5 69 -9.5h146l8 1l51 2q24 3 41 3q59 0 66 33q13 65 13 296l3 80v26l5 114v31q0 13 -4 13q-14 0 -95.5 -135.5t-192 -290t-110.5 -164z" />
<glyph unicode="5" horiz-adv-x="1132" d="M134 166q0 66 73 66q11 0 113.5 -53.5t185.5 -53.5q132 0 203.5 86.5t71.5 215.5q0 81 -36 140.5t-87 91.5q-82 52 -289 52q-104 0 -139 31.5t-35 99t41 317.5q16 100 42 137t75 47t173.5 10t227 6.5t111.5 6.5q77 0 77 -60q0 -71 -64 -99q-48 -21 -223.5 -21t-211.5 -25 q-74 -52 -74 -202q0 -51 16 -67q15 -16 119 -16q222 0 354 -117t132 -317q0 -201 -139 -332q-139 -130 -358 -130q-130 0 -244.5 57.5t-114.5 128.5z" />
<glyph unicode="6" horiz-adv-x="1139" d="M121 613v4v27q0 150 48 284q98 274 308 376q125 61 247 61h22q103 0 147 -37q20 -17 20 -35q0 -46 -140 -53t-224.5 -70t-127.5 -143t-43 -145.5t49 -65.5q4 0 69 15.5t136 15.5t148.5 -38.5t129.5 -101.5q99 -119 99 -270v-50q0 -78 -35.5 -157t-95.5 -133 q-103 -94 -237 -94t-222.5 43.5t-156.5 123.5q-141 168 -141 443zM362 437q0 -117 69 -224q55 -85 143 -85h17l8 1q85 0 142 82t57 195v29q0 137 -61 225t-150 88h-16q-94 0 -151.5 -75t-57.5 -177v-59z" />
<glyph unicode="7" horiz-adv-x="1122" d="M130 1209.5q0 70.5 23 99.5q45 57 133 57l22 -1l45 -4q31 -2 72 -2l148 3q279 0 352 -12.5t73 -67t-48.5 -163t-111.5 -243.5q-210 -450 -292 -720q-32 -107 -44 -131q-24 -50 -80 -50h-22q-39 0 -61.5 14t-22.5 61q0 125 219.5 574t219.5 494t-33.5 56t-139.5 11 t-161.5 -8.5t-129 -23t-90.5 -14.5q-71 0 -71 70.5z" />
<glyph unicode="8" horiz-adv-x="1137" d="M144 332v45q0 92 44 164t92 117l81 76q-1 8 -55 57q-118 107 -118 262.5t114 263t269 107.5h22q163 0 262.5 -92.5t99.5 -235t-109 -254.5l-76 -79q0 -7 34 -31q190 -132 190 -314v-44q0 -70 -36 -148q-74 -161 -235 -214q-84 -28 -170 -28q-179 0 -294 99.5t-115 248.5z M326 377q0 -105 78.5 -176.5t171.5 -71.5h26q88 0 149 61t61 140v25q0 110 -102 203.5t-200 93.5h-8q-60 0 -118 -77.5t-58 -154.5v-43zM366 1078q0 -86 74 -152q98 -87 168 -87h14q61 0 110 70t49 133v21q0 89 -61.5 150.5t-151.5 61.5h-22q-70 0 -125 -49.5t-55 -120.5 v-27z" />
<glyph unicode="9" horiz-adv-x="1143" d="M133 982q0 183 109 298t275 115h25q110 -1 200 -53q185 -108 251 -355q27 -102 27 -233q0 -302 -170 -517q-68 -86 -179.5 -149.5t-232.5 -63.5h-45q-99 0 -152 37q-24 17 -24 35q0 42 151 54q245 19 348 205q46 82 46 148.5t-61 66.5q-5 0 -35 -7l-40 -10 q-41 -9 -103 -9q-61 0 -139 32q-152 64 -220 236q-31 78 -31 170zM336 933q0 -120 64 -203t153 -83h17q89 0 152.5 69t63.5 186v38q0 140 -70 231t-166 91l-9 -1q-81 0 -143 -81t-62 -198v-49z" />
<glyph unicode=":" horiz-adv-x="583" d="M174 140l1 4v14q3 20 3 22q0 40 26.5 66.5t86.5 26.5h5q117 0 117 -98l3 -27v-18l-2 -18l-3 -22q0 -37 -26.5 -59t-60.5 -22q-8 -2 -12 -2l-17 -1h-4l-33 4q-27 0 -53 21.5t-26 63.5q-3 12 -3 17zM176 838v23l4 30q0 42 28.5 66t76.5 24h25q59 0 82 -28t23 -67l3 -27v-23 l-2 -18l-4 -22q0 -26 -21.5 -51.5t-60.5 -25.5q-8 -2 -12 -2l-21 -2h-4l-33 4q-29 0 -54.5 21.5t-25.5 66.5q-2 8 -2 13z" />
<glyph unicode=";" horiz-adv-x="604" d="M171 -218q0 14 21.5 40t47.5 68.5t26 105.5q0 10 -34.5 54.5t-34.5 113.5q0 120 106 120h22q56 0 84 -28t28 -109v-23q0 -127 -60 -224q-99 -161 -173 -161h-6q-27 0 -27 38v5zM192 844v18l1 5l2 21q3 12 3 17q0 35 27 57.5t60 22.5l21 3h22q107 0 107 -96l3 -26v-19 q0 -58 -24.5 -92.5t-91.5 -34.5h-13l-37 5q-32 0 -56 28.5t-24 90.5z" />
<glyph unicode="&#x3c;" horiz-adv-x="1172" d="M129 607.5q0 54.5 82 99.5q739 401 791 401q21 0 21 -49q0 -71 -79 -126q-46 -32 -323.5 -178.5t-277.5 -152.5q0 -12 250.5 -140.5t317.5 -171.5q111 -71 111 -153q0 -44 -21 -44t-83 33q-628 332 -708.5 379.5t-80.5 102z" />
<glyph unicode="=" horiz-adv-x="1185" d="M115 413v50q0 40 53 45q11 1 445 1l255 1h154q55 0 55 -41v-50q0 -41 -42 -45q-20 -2 -443 -2h-179l-44 -1h-198q-56 0 -56 42zM117 791v41q0 46 35 52q19 3 464 3l134 1h264q65 0 65 -44v-40q0 -44 -21 -50t-164 -6h-99l-11 1h-269l-34 -1h-320q-44 0 -44 43z" />
<glyph unicode="&#x3e;" horiz-adv-x="1169" d="M149 129v18q0 73 103 139q63 40 322 173.5t259 147.5q0 2 -275 147t-318 174q-90 61 -90 139q0 44 24.5 44t123.5 -56t203.5 -108t131.5 -66.5t159 -80.5t190 -101.5t58 -85.5t-51 -85t-292 -159t-371.5 -198.5t-145.5 -74.5h-14q-17 0 -17 33z" />
<glyph unicode="?" horiz-adv-x="973" d="M121 1187v15q0 75 106 144.5t238 69.5h39q61 0 132.5 -26.5t121.5 -76.5q97 -97 97 -229v-19q0 -157 -174 -325q-108 -104 -132.5 -139t-32 -119t-53.5 -84h-15q-75 0 -75 147q0 112 132.5 266.5t132.5 265.5q0 71 -44 121.5t-121.5 50.5t-147.5 -54q-114 -88 -131 -88 q-73 0 -73 80zM324 103v27l2 17l3 21q0 33 26 54.5t74 21.5h16q12 -3 32.5 -3t48.5 -23.5t28 -72.5l3 -21v-23l-1 -4v-9q-2 -8 -2 -27t-20.5 -43.5t-53.5 -24.5l-31 -5h-20q-105 0 -105 115z" />
<glyph unicode="@" horiz-adv-x="1658" d="M140 562v59q0 140 62.5 292.5t180.5 258.5q221 200 505 200t461 -162q81 -74 131.5 -184t50.5 -219v-59q0 -78 -33 -180.5t-92 -171.5t-119.5 -98.5t-120.5 -29.5t-103 29l-29 25l-25 16q-22 0 -103.5 -36.5t-148.5 -36.5q-100 0 -159 79.5t-59 210.5t93 241t200 110 l41 -4l75 -11l35 6l74 19q44 0 61.5 -17t17.5 -59l-24 -315q0 -51 20 -80t54.5 -29t74 29.5t70.5 76.5q72 109 72 261q0 86 -34 178.5t-104 156t-155 99.5t-175 36q-91 0 -161 -13q-182 -34 -321 -189q-170 -191 -170 -487q0 -164 85.5 -309.5t237.5 -217.5q122 -58 260 -58 h5q141 0 298 61q94 36 122 37q12 0 12 -7q0 -22 -40 -54.5t-122 -65.5q-153 -61 -309 -61q-283 0 -468 167q-106 95 -165 230.5t-59 275.5zM645 499l1 -8q0 -77 32 -121.5t79 -44.5h6q76 0 151 117q102 159 102 311v37q0 48 -26.5 74.5t-67.5 26.5h-7q-87 0 -178.5 -122 t-91.5 -270z" />
<glyph unicode="A" horiz-adv-x="1350" d="M101 168q0 46 34 98q73 112 224 539.5t174 481.5q52 120 129 120h25q72 0 128 -120q26 -56 172.5 -471t203.5 -516.5t57 -132.5q0 -77 -57 -109q-32 -18 -125 -18q-54 0 -80 41q-11 17 -20 64t-17 76q-42 155 -86 188.5t-224.5 33.5t-218.5 -34.5t-75 -174.5 q-12 -44 -20 -95.5t-16 -66.5q-18 -33 -82 -33q-126 0 -126 129zM473 576q0 -17 57 -17h7l7 1l100 1q171 0 171 18v6q0 47 -81.5 307.5t-84 260.5t-5.5 -12.5t-87 -264t-84 -294.5v-6z" />
<glyph unicode="B" horiz-adv-x="1277" d="M181 1364q0 36 49 45t246 9l45 1h117q303 0 394 -191q31 -64 31 -152q0 -153 -122 -253q-63 -52 -63 -59q0 -8 36 -24q102 -48 161 -130.5t59 -192.5q0 -199 -146 -310q-64 -49 -154.5 -71.5t-257.5 -22.5h-91l-22 1q-180 0 -230 7.5t-50 45.5q0 20 19.5 69t26.5 98.5 t7 215.5l-2 98q-1 24 -1 49l-4 96q-3 72 -3 120l2 97l1 24q1 24 1 49l1 24v49q0 120 -6.5 161t-25 87t-18.5 60zM426 407q0 -182 16 -209.5t91 -27.5q18 -2 27 -2l48 -2h9q154 0 235 62t81 164v29q0 122 -96 184t-260 62h-9l-10 -1q-94 0 -113 -13.5t-19 -78.5v-167z M426 904q0 -53 15 -66t70 -13h33l8 1l50 2q8 1 17 1q112 0 183.5 65t71.5 153v25q0 89 -70 140t-183 51h-42q-112 0 -132 -28.5t-20 -207.5v-54l-1 -32v-37z" />
<glyph unicode="C" horiz-adv-x="1336" d="M110 691v35q0 132 46 258q96 267 326 371q116 53 244 53h32q69 0 192.5 -22t157 -40t69.5 -72t36 -121t-58 -67q-22 0 -99 57t-149.5 87t-163.5 30q-183 0 -296 -156t-113 -412q0 -106 30 -213q61 -214 240 -293q70 -31 167 -31t211 54q27 13 99.5 55.5t102.5 42.5 q46 0 46 -48q0 -31 -34.5 -82t-111.5 -94q-152 -85 -334 -85h-33q-266 0 -437 194q-170 194 -170 499z" />
<glyph unicode="D" horiz-adv-x="1428" d="M184 64q0 15 20 61t32 99.5t12 187.5l1 24q1 24 1 48l1 48v216q0 319 -9 401.5t-33 140.5t-24 66q0 34 35 43.5t158 9.5l66 2l22 1l135 2q168 0 281.5 -36t208 -127.5t145.5 -223.5t51 -264v-79v-5q0 -136 -59 -279q-111 -271 -378 -358q-108 -35 -289 -35h-110 q-151 0 -209 10.5t-58 46.5zM453 260q0 -65 27 -81q40 -23 112 -23h44q180 0 291 135q63 77 96 186t33 216v54q0 127 -39 229q-111 290 -391 290h-14q-145 0 -156 -55q-1 -5 -1 -70v-80l1 -31v-31l1 -31v-458l-1 -16v-32l-3 -156v-46z" />
<glyph unicode="E" horiz-adv-x="1196" d="M157 123q0 26 24 84t36.5 168.5t12.5 368.5t-9 335t-35.5 152t-26.5 76q0 47 72 61q173 34 547 34q167 0 207 -21q55 -29 55 -115q0 -48 -72 -48q-5 0 -95 18t-222 18l-3 1q-129 0 -164 -45q-48 -61 -48 -277q0 -90 155 -90q53 0 127.5 18t80.5 18q61 0 91 -54 q13 -23 13 -89.5t-26 -100.5t-59 -34t-99.5 17.5t-137 17.5t-114.5 -26t-44 -96q0 -215 47 -294q36 -61 153 -61t179.5 9.5t133.5 26.5t98 17q46 0 46 -67t-62.5 -99.5t-284.5 -32.5h-76q-329 0 -435 33q-65 20 -65 77z" />
<glyph unicode="F" horiz-adv-x="1128" d="M162 139v23q0 15 25 66t34.5 101.5t9.5 188.5v168l-2 92l-1 31q-1 31 -1 158t-31.5 231.5t-31.5 118.5q0 80 380 80l63 2l95 1h124q129 0 167 -17q56 -25 56 -99v-24q0 -50 -59 -50q-8 0 -116 24t-244 24l-3 1q-134 0 -159 -52q-35 -70 -35 -269q0 -111 132 -111 q50 0 102 11l46 12q35 9 46 9q64 0 105 -67q25 -41 25 -119q0 -85 -85 -85q-12 0 -44 8l-46 12q-29 6 -122 6t-126 -48t-33 -171t17 -196.5t17 -89.5q0 -76 -127 -76h-27q-66 0 -108.5 26t-42.5 80z" />
<glyph unicode="G" horiz-adv-x="1443" d="M109 675v42q0 139 54 277q53 138 143 228q185 188 460 188q367 0 447 -138q30 -52 30 -97q0 -73 -54 -73q-24 0 -106.5 51.5t-151.5 75.5t-163 24q-191 0 -307.5 -149.5t-116.5 -424.5q0 -95 34 -199q68 -203 229 -281q79 -39 179 -39t170 62.5t70 148.5t-55 161.5 t-55 84.5q0 55 194.5 55t194.5 -74q0 -34 -50 -353q-14 -87 -41.5 -119.5t-99 -48t-153 -40.5t-154.5 -32l-40 -3h-40q-139 0 -253 54q-223 106 -313 336q-52 133 -52 283z" />
<glyph unicode="H" horiz-adv-x="1454" d="M138 1297q0 38 13 55q25 33 83 33h37q189 0 189 -117q0 -1 -20 -81q-19 -76 -19 -229v-15q0 -115 61 -143q47 -22 240 -22t233.5 33.5t40.5 207.5q0 99 -16 167.5t-16 73.5q0 112 199 112q140 0 140 -98q0 -21 -15.5 -61.5t-23.5 -80.5t-8 -432q0 -24 -1 -48v-74 q0 -279 7 -312q8 -42 32 -97t24 -78t-19 -45.5t-83 -22.5h-38q-174 0 -174 125l13 60q23 102 23 310q0 113 -58 139.5t-249 26.5t-232.5 -35t-41.5 -193t15 -226t15 -74q0 -111 -188 -111q-75 0 -112 19t-37 72q0 23 21 70t25 85.5t4 383t-8 420.5t-32 138t-24 64z" />
<glyph unicode="I" horiz-adv-x="681" d="M150 84v15q0 24 32 79.5t41 117.5t9 414t-8.5 412t-40.5 119.5t-32 87.5q0 85 161 85h73q66 0 107.5 -21t41.5 -57v-15q0 -19 -33.5 -81.5t-42.5 -125t-9 -411t8 -405.5t42 -117.5t34 -89t-30 -55.5t-91 -27h-129q-62 0 -97.5 24.5t-35.5 50.5z" />
<glyph unicode="J" horiz-adv-x="940" d="M40 123.5q0 78.5 76 78.5q28 0 88 -30t116 -30t102.5 51t77.5 156.5t31 365.5t-13.5 340.5t-48 153.5t-34.5 96q0 108 176 108h45q63 0 101.5 -32.5t38.5 -66.5v-16q0 -12 -22.5 -97.5t-27 -188.5t-4.5 -348.5t-15 -345.5q-34 -224 -179 -314q-94 -59 -202 -59h-22 q-109 0 -196.5 50t-87.5 128.5z" />
<glyph unicode="K" horiz-adv-x="1345" d="M180 1304q0 57 31 79.5t94 22.5h35q74 0 111 -29.5t37 -59.5t-8 -63l-7 -30q-34 -129 -34 -257.5t42 -128.5q52 0 240 226q106 127 156 239q21 48 50.5 73t98.5 25q108 0 108 -48q0 -18 -209.5 -256t-209.5 -299q0 -44 241 -385q82 -116 179 -233t97 -125q0 -41 -120 -41 t-173 52q-6 6 -79.5 138.5t-168.5 262t-150 129.5q-40 0 -65.5 -56t-25.5 -144.5t17 -169.5t17 -113.5t-41 -66.5t-122.5 -34t-109.5 24t-28 79l9 30l11 30q10 31 16 64t6 191l-5 203q-2 54 -2 80l-1 40q-1 27 -1 54v27q0 40 3 119l3 122q0 87 -21 153t-21 76z" />
<glyph unicode="L" horiz-adv-x="1124" d="M145 1324q0 49 39 76q19 13 59 13h48q90 0 140.5 -29t50.5 -78q0 -19 -21.5 -81.5t-30 -143t-8.5 -442.5t19 -409q27 -66 146.5 -66t217.5 28q17 5 95 33t97 28q68 0 68 -93.5t-42 -118t-226 -24.5h-50l-76 -2l-26 -1l-103 -1h-129q-153 0 -204 18t-51 70q0 19 9.5 49 t22 80.5t12.5 148.5l1 26v51l4 231v220q0 194 -5.5 236t-31 101t-25.5 80z" />
<glyph unicode="M" horiz-adv-x="1722" d="M126 116.5q0 25.5 25 100.5t40.5 235t15.5 410.5t-7 327.5l-6 48l-12 77q0 55 72 55q162 0 256 -137q47 -69 178.5 -391t143.5 -346l22 -34q24 0 170.5 347.5t193 420t107 109t112.5 36.5q101 0 101 -67l-4 -38l-13 -93q-6 -67 -6 -411.5t37 -503.5l36 -116v-34l-14 -29 q-33 -41 -108 -41t-116.5 44t-41.5 103l3 40l4 44q6 68 6 306q0 432 -37 432q-25 0 -180 -386.5t-177 -426.5q-44 -81 -100 -81q-50 0 -92 95q-23 51 -171 428.5t-176 377.5q-36 0 -36 -669q0 -50 2 -95l5 -80q0 -124 -133 -124q-39 0 -69.5 20.5t-30.5 46z" />
<glyph unicode="N" horiz-adv-x="1456" d="M127 72q0 28 29 92t35.5 140.5t6.5 402t-2.5 401.5t-23.5 143.5t-21 73.5q0 53 75 53q143 0 270 -144q49 -56 313.5 -442t279.5 -386q21 0 21 329t-8 394t-18 113t-10 54q0 96 123 96q63 0 94.5 -32.5t31.5 -73t-22.5 -117.5t-29.5 -150.5t-7 -495.5t-7 -446 q-12 -42 -78 -42t-164.5 120.5t-341.5 490.5t-291 370q-22 0 -22 -240v-88l1 -43q1 -44 1 -156.5t17.5 -211.5t18.5 -106q0 -63 -50 -108t-120 -45h-39q-62 0 -62 54z" />
<glyph unicode="O" horiz-adv-x="1494" d="M168 654v72q0 145 54 290q105 279 320 378q98 45 215 45h42h4q111 0 212 -57q205 -114 282 -351q45 -138 45 -288v-24q0 -307 -159 -518q-80 -106 -188.5 -161.5t-224.5 -55.5h-42q-232 0 -396 191q-78 90 -121 225.5t-43 253.5zM389 698q0 -242 99 -407 q42 -69 108 -114.5t139 -45.5h29q74 0 140.5 45.5t112.5 121.5q91 152 91 355v91q0 217 -100 384q-46 76 -115.5 118.5t-143.5 42.5h-14q-67 0 -133 -40q-129 -79 -180 -279q-33 -128 -33 -254v-18z" />
<glyph unicode="P" horiz-adv-x="1205" d="M154 90q0 32 20 86q38 100 38 276v126l2 70l1 23q1 23 1 46l4 92q3 69 3 91l4 179q0 141 -12 190t-12 73q0 31 60 40q163 25 372 25h67q171 0 277 -82q120 -93 120 -273.5t-132 -308.5q-58 -57 -127 -85t-169.5 -49t-146.5 -51q-92 -60 -93 -179q0 -37 22.5 -118 t22.5 -104q0 -64 -66 -113q-43 -32 -126 -32l-21 1h-21q-43 0 -65.5 22.5t-22.5 54.5zM432 768q0 -61 90 -61h33q135 0 222 79.5t87 213.5v39q0 103 -65.5 163t-163.5 60h-43l-8 -1h-17q-25 -3 -33 -3q-63 0 -80.5 -45t-17.5 -264v-18l-1 -19v-18l-1 -19v-18l-1 -19v-18 l-1 -26v-26z" />
<glyph unicode="Q" horiz-adv-x="1503" d="M168 771v28q0 123 38 241q75 232 272 334q111 58 237 58h53q249 0 426 -240q128 -173 128 -493q0 -138 -44 -270.5t-112 -233t-68 -121.5q0 -38 120.5 -122t120.5 -100v-5q0 -27 -56 -27h-66q-186 0 -414 82.5t-366 212t-203.5 302.5t-65.5 354zM383 691q0 -226 96 -376 q50 -78 119 -119.5t131 -41.5h12q49 0 81 30q11 10 36 55t48 69t73 64.5t55 48.5q74 102 74 311v36q0 216 -100 368q-99 151 -249 151h-2q-152 0 -256 -137q-51 -68 -84.5 -174.5t-33.5 -208.5v-76z" />
<glyph unicode="R" horiz-adv-x="1317" d="M191 121v26q0 16 21.5 70.5t24.5 90t3 224.5l8 467q0 202 -10 246t-19 77t-9 37q0 42 56 50t232 8l88 1q248 0 358 -80q135 -98 135 -298q0 -166 -141 -297q-75 -70 -75 -89q0 -46 94 -215.5t133 -218.5q97 -123 97 -146v-18q0 -31 -97.5 -31t-154.5 67 q-26 30 -103 187.5t-135 229.5t-135 72q-50 0 -86 -71q-15 -30 -15 -107t22.5 -164t22.5 -107q0 -50 -40.5 -80t-92.5 -30h-29q-153 0 -153 99zM436 806q0 -51 76 -51h49q139 0 229.5 70t90.5 182v47q0 88 -65 147t-168 59h-60q-88 0 -115 -24.5t-27 -91.5l-2 -18v-26l-1 -9 v-17l-1 -26v-17l-5 -118v-17l-1 -34v-56z" />
<glyph unicode="S" horiz-adv-x="1141" d="M106 243v30q0 68 58 68q27 0 100.5 -64.5t142.5 -100.5t172 -36t173.5 58.5t70.5 168.5q0 83 -91 157q-52 42 -238.5 127t-270 174t-83.5 239t121 251q121 102 328.5 102t298.5 -55q43 -26 68 -74t25 -87q0 -89 -63 -89q-23 0 -89.5 54.5t-129 80.5t-146 26t-148.5 -51.5 t-65 -136t81 -150.5q55 -44 242.5 -128.5t263.5 -161.5q104 -106 104 -236v-35q0 -65 -28.5 -137t-89.5 -127q-128 -115 -346 -115q-57 0 -189.5 24.5t-166.5 44t-69.5 74.5t-35.5 105z" />
<glyph unicode="T" horiz-adv-x="1220" d="M105 1246v25q0 77 51 113q31 22 157 22l52 2l236 3h262q162 0 194 -12q66 -25 66 -118v-25q0 -80 -44 -80q-21 0 -100 27t-146.5 27t-89 -53.5t-21.5 -208.5l-2 -56l-2 -172v-184q0 -266 28 -352.5t28 -110.5q0 -47 -57 -75q-27 -13 -115 -13t-125.5 25.5t-37.5 80.5 q0 12 23.5 69t31.5 123.5t8 427t-13 413.5t-38.5 68t-75 15t-127 -26.5t-101.5 -26.5q-42 0 -42 72z" />
<glyph unicode="U" horiz-adv-x="1405" d="M127 1263q0 66 46 111q25 24 77 24h33q82 0 118 -25.5t36 -82.5q0 -3 -16 -88.5t-16 -260.5l-1 -36q-1 -36 -1 -73l-1 -74v-74q0 -322 68 -426q48 -74 112.5 -99t146 -25t153 40.5t113.5 117.5q66 120 66 470l-3 182q0 166 -13 264.5t-13 110.5q0 79 148 79 q47 0 78 -37.5t31 -77t-25.5 -102t-32.5 -122.5t-7 -311t-16 -364q-16 -112 -80 -206q-130 -190 -431 -190t-428 207q-54 89 -68 204.5t-14 388t-6 309t-30 86t-24 80.5z" />
<glyph unicode="V" horiz-adv-x="1315" d="M67 1310q0 50 36 70q21 12 87.5 12t114 -24t63.5 -59.5t22.5 -97t22 -124t137.5 -411.5t138.5 -349t137.5 346t145 426.5t31 140t14 78.5q27 73 135 73q65 0 86 -21t21 -62.5t-52 -121.5t-239 -575.5t-190 -502.5q-46 -100 -118.5 -100t-118.5 102q-22 48 -197 525.5 t-225.5 551t-50.5 123.5z" />
<glyph unicode="W" horiz-adv-x="1842" d="M113 1263q0 105 75 105q100 0 145 -87q20 -38 44.5 -156.5t71.5 -303.5q98 -384 132 -384q24 0 123 377q18 68 56.5 237t46.5 190q42 103 122.5 103t126.5 -97q22 -47 45.5 -152t108 -372.5t93.5 -267.5q34 0 131 357q38 139 70.5 276t43.5 164q37 94 125 94 q66 0 66 -101q0 -48 -38.5 -147.5t-48.5 -133t-88 -337.5t-111 -387t-71 -114.5t-68 -31.5q-72 0 -143 159q-50 111 -141 396t-107 285t-110.5 -301.5t-139.5 -405.5q-64 -148 -140 -148q-29 0 -67.5 31t-57.5 83.5t-58.5 199t-61.5 223.5t-59 209t-76.5 261t-39.5 177z" />
<glyph unicode="X" horiz-adv-x="1319" d="M125 66q0 38 66 111.5t139 188.5q195 307 195 346q0 21 -116.5 220.5t-186 292.5t-69.5 123.5t26 43.5t143.5 13t154.5 -58q9 -15 18.5 -67.5t40.5 -118.5q114 -243 139 -243q39 0 168 247q36 69 50.5 134.5t23.5 75.5q29 33 113 33q130 0 130 -50q0 -10 -180.5 -278.5 t-180.5 -333.5q0 -35 128.5 -245.5t199 -304.5t70.5 -113v-23q0 -52 -113 -52h-35q-126 0 -167 53q-15 20 -30.5 84t-48.5 128q-140 271 -163 271q-41 0 -187 -279q-31 -60 -46 -132t-21 -80q-32 -44 -176 -44q-85 0 -85 57z" />
<glyph unicode="Y" horiz-adv-x="1275" d="M107 1346q0 31 35 45t132 14t139 -56q9 -12 26.5 -88.5t61.5 -167.5q146 -304 167 -304t113.5 189t107 230.5t23 90t12.5 55.5q27 52 138 52t111 -57q0 -28 -57 -105.5t-171 -280.5t-154 -299.5t-40 -289.5q0 -87 8.5 -123t25 -78.5t16.5 -61.5q0 -56 -39.5 -83 t-101.5 -27h-54q-66 0 -92 17q-43 28 -43 89q0 16 29.5 90t29.5 219t-28 211t-148 289t-183.5 311t-63.5 119z" />
<glyph unicode="Z" horiz-adv-x="1229" d="M103 84q0 70 354 588.5t354 554.5t-167 36t-302 -37q-136 -37 -150 -37q-61 0 -61 86t94 116q44 14 339 14h37l36 -1h37q308 0 357 -7q77 -11 77 -57q0 -68 -84.5 -199.5t-351 -505.5t-266.5 -412t27 -52t184 -14t359 58q74 22 101 22q62 0 62 -84.5t-95 -118.5 q-62 -22 -329 -22h-367q-163 0 -204 17t-41 55z" />
<glyph unicode="[" horiz-adv-x="727" d="M203 177v25l1 25v126l1 51v547t16 485.5t75 64t234 12.5h45q55 0 55 -34q0 -60 -104 -88t-125 -87t-21 -696.5t15 -699t122 -91t107 -75.5t-60 -46h-69l-23 1q-224 0 -246.5 48t-22.5 432z" />
<glyph unicode="\" horiz-adv-x="865" d="M60 1482q0 22 43 22h34q51 0 91 -90q9 -20 265 -678.5t287.5 -737.5t31.5 -103.5t-77 -24.5q-51 0 -104 120q-3 7 -60.5 154t-64.5 164t-55.5 147t-219.5 563t-171 464z" />
<glyph unicode="]" horiz-adv-x="724" d="M107 -273q0 57 105 85.5t123 87t18 698t-16 703.5t-123 93.5t-107 71.5v16q0 30 56 30h65q204 0 246 -28.5t42 -157.5l2 -48v-451l1 -101v-502q0 -431 -27.5 -479.5t-245.5 -48.5l-45 -2h-43q-51 0 -51 33z" />
<glyph unicode="^" horiz-adv-x="1102" d="M111 738.5q0 17.5 55 105.5t161 279l56 102q59 106 89 149.5t77 43.5h15q47 0 99 -82q12 -20 302 -541q27 -49 27 -63.5t-44 -14.5h-15q-68 0 -130 82q-22 29 -133 230.5t-117 201.5q-21 0 -120.5 -193t-151 -255t-111 -62t-59.5 17.5z" />
<glyph unicode="_" horiz-adv-x="1108" d="M8 -183q0 31 224 31h97l13 -1l715 -3q44 0 44 -40v-44q0 -30 -176 -30h-218l-12 1h-146l-25 1h-338l-24 1h-98q-56 0 -56 40v44z" />
<glyph unicode="`" horiz-adv-x="767" d="M155 1450v4q0 30 75 30h27q73 0 115 -48q166 -190 166 -265q0 -21 -35 -21h-21q-49 0 -134 74q-193 169 -193 226z" />
<glyph unicode="a" d="M119 262q0 118 102 205q69 59 176 95q41 14 116 33.5t100 34.5q54 32 54 96.5t-46 106t-119.5 41.5t-168 -65t-128.5 -65q-68 0 -68 72.5t121 131.5t256 59h25q158 0 239.5 -87t81.5 -259l-11 -299q0 -115 17 -160q2 -6 26.5 -46.5t24.5 -67.5q0 -72 -128 -72 q-34 0 -80.5 28.5t-64.5 28.5t-104 -39.5t-157 -39.5h-21q-121 0 -182 75t-61 193zM293 250q0 -52 36 -83.5t92 -31.5l6 1q110 0 186 85q53 60 53 194v41q0 41 -28 41h-15q-125 0 -248 -86q-82 -57 -82 -137v-24z" />
<glyph unicode="b" horiz-adv-x="1136" d="M131 1375q1 84 125 84q68 0 90 -29t22 -127l-3 -137v-94q0 -70 10.5 -95.5t51.5 -25.5q13 0 75.5 16.5t134 16.5t149 -44t133.5 -121q94 -130 94 -335t-102 -338q-52 -68 -123 -104.5t-147 -36.5h-21q-43 0 -135.5 30t-104 30t-42.5 -11t-64.5 -11t-53 31.5t-19.5 291.5 v70l-3 119l-2 47q-3 72 -3 94l-9 231l-3 67q-2 45 -2 123t-24 149.5t-24 108.5zM394 498q0 -195 36 -271q19 -40 62 -68t81 -28h17l9 1q91 0 151 107t60 257v36q0 142 -59.5 241t-145.5 99h-16q-40 0 -86.5 -27.5t-77.5 -86.5t-31 -217v-43z" />
<glyph unicode="c" horiz-adv-x="1003" d="M92 468v25q0 206 114 347q136 164 349 164h23q145 0 246 -61q72 -44 72 -114q0 -24 -20 -48t-48 -24q-28 1 -112 55q-86 54 -156 54q-135 0 -200.5 -104t-65.5 -258t80 -256q76 -95 204 -95q70 0 167 43t122 43q43 0 43 -39q0 -70 -114.5 -135.5t-233.5 -65.5h-47 q-75 1 -157 35q-165 70 -232 248q-34 91 -34 186z" />
<glyph unicode="d" horiz-adv-x="1158" d="M145 450v26q0 227 125.5 377t311.5 150q1 0 39 -2l53 -3q58 0 78 21.5t20 109.5t-15.5 149.5t-15.5 74.5q0 42 36 68.5t110 26.5t90 -47q9 -26 9 -264l-2 -115v-46l-1 -23q-1 -23 -1 -46l-2 -47q-2 -47 -3 -71l-6 -144q-9 -216 -9 -305t10.5 -140.5t14.5 -68t4 -23.5v-16 q0 -53 -97 -53q-45 0 -90.5 21t-66.5 21t-98 -38.5t-151 -38.5q-152 0 -247.5 114t-95.5 332zM342 485q0 -139 54.5 -241.5t140.5 -102.5h35q31 0 79 29t70 71q46 87 46 284v33l-1 11l-2 53q0 126 -52.5 197.5t-133.5 71.5h-26q-90 0 -150 -107t-60 -252v-47z" />
<glyph unicode="e" horiz-adv-x="1049" d="M111 482q0 218 139 376q61 69 152 110t188 41h22q143 0 234 -98t91 -235q0 -84 -69 -116q-51 -24 -244 -37.5t-232 -25.5q-81 -25 -81 -96q0 -94 75 -169t189 -75q72 0 189 45t127 45q45 0 45 -36q0 -71 -119.5 -138t-239.5 -67q-216 0 -341 129t-125 347zM311 652 q0 -25 54 -25h48l6 1l103 3q228 0 228 37v16q0 64 -54 125.5t-133 61.5h-38q-14 -2 -19 -2q-70 0 -132.5 -71t-62.5 -141v-5z" />
<glyph unicode="f" horiz-adv-x="745" d="M118 910q0 6 81 118q23 31 51 142t74 169q96 120 245 120h23q62 0 116 -22.5t54 -62.5q0 -80 -87 -80l-108 14q-58 0 -93.5 -46.5t-35.5 -132t85 -143.5q85 -56 85 -90t-57.5 -59t-86 -92.5t-28.5 -361.5q0 -99 7.5 -136.5t19 -79t11.5 -69.5q0 -94 -154 -94h-22 q-49 0 -82.5 40t-33.5 94q0 16 16 71t23 109.5t7 213.5t-17.5 219.5t-55 96.5t-37.5 62z" />
<glyph unicode="g" horiz-adv-x="1146" d="M167 573v31q0 206 108.5 328t274.5 122q74 0 115 -17t77.5 -38t45 -21t29.5 16t55 16t62 -21t28 -78.5t-16.5 -180t-16.5 -224t11 -220.5l13 -108q9 -80 9 -106v-53q0 -169 -116 -282t-298 -113h-29q-126 0 -240 63q-87 48 -87 107q0 54 73 54q11 0 117 -31.5t166 -31.5 q115 0 185 76t70 217q0 30 -19 30q-7 0 -33 -14q-126 -42 -165 -42h-2h-4q-287 0 -379 306q-34 112 -34 215zM359 530q0 -128 62.5 -225.5t130.5 -97.5h14q82 0 142.5 78.5t60.5 199.5v100q0 115 -50 222q-15 32 -57 63.5t-73 31.5h-24q-69 0 -137.5 -81t-68.5 -193v-98z " />
<glyph unicode="h" horiz-adv-x="1153" d="M144 1382q0 43 96.5 43t118.5 -52.5t22 -241t46 -188.5q3 0 91 31.5t157 31.5t134.5 -37t110 -114.5t44.5 -412.5q0 -159 22.5 -233.5t22.5 -89.5q0 -59 -30 -80t-95.5 -21t-94.5 27t-29 84l1 24q12 144 12 343l1 34q1 34 1 67q0 129 -34.5 183.5t-104.5 54.5 t-122.5 -40.5t-86 -110t-33.5 -234.5t14 -240t14 -90q0 -48 -33.5 -76.5t-99 -28.5t-100 16.5t-34.5 84.5q0 8 16 76t20.5 128t4.5 246.5t-8 314.5l-4 64q-4 85 -4 196.5t-18 171t-18 69.5z" />
<glyph unicode="i" horiz-adv-x="573" d="M130 933v10q0 18 24 39t150 21h24q49 0 57 -62q3 -23 3 -179v-191l-1 -28v-42l4 -123q1 -14 1 -55t27.5 -123.5t27.5 -84.5v-11q0 -94 -144 -94h-39q-71 0 -101 20.5t-30 70.5q0 13 24 73t28.5 119.5t4.5 234t-6.5 231t-30 108.5t-23.5 66zM167 1299v24l4 28q0 30 25 55 t62 25l8 2l33 2l23 -2l23 -4q63 0 63 -89v-29q0 -48 -26.5 -74.5t-60.5 -26.5q-8 -2 -12 -2l-16 -2h-32l-27 4q-67 0 -67 89z" />
<glyph unicode="j" horiz-adv-x="582" d="M-45 -324q0 36 34 59q11 7 81.5 22t100.5 55q45 61 45 219l2 39v39l1 39v191q0 234 -7.5 322.5t-32.5 168.5t-25 109q0 58 157 58h17q55 0 76 -63q14 -42 14 -173v-593l-1 -19v-39l-2 -78v-3q0 -312 -197 -401q-66 -30 -126 -30h-33q-104 0 -104 78zM196 1297v16l1 5 l2 20q0 43 32 70t96 27h9q96 0 96 -74q2 -8 2 -12l2 -20v-13l-4 -32q0 -32 -25.5 -57.5t-61.5 -25.5q-14 -3 -17 -3l-21 -2h-17q-94 0 -94 101z" />
<glyph unicode="k" horiz-adv-x="1088" d="M127 1408q0 46 107 46t125 -71q7 -28 7 -288l-1 -33v-68l2 -131q0 -232 35 -232q54 0 153 116q39 46 78.5 103.5t61.5 74.5q49 38 142 38t93 -30q0 -22 -139 -154.5t-139 -190t175 -289.5q47 -63 123.5 -137.5t76.5 -107.5t-91 -33h-31q-105 0 -157 56q-7 7 -47.5 75 t-80.5 127q-119 173 -146 173q-66 0 -66 -121l15 -161q0 -50 -38.5 -83t-109.5 -33t-92 10q-38 18 -38 77q0 15 4 46l3 23q16 112 16 202l1 66v102l1 103v103q0 307 -2.5 388t-21.5 143.5t-19 90.5z" />
<glyph unicode="l" horiz-adv-x="602" d="M138 1402q0 57 163 57h6q71 0 82 -71q3 -19 3 -274v-359l2 -93l3 -110v-8q0 -233 55 -363q26 -63 27 -97q0 -80 -147 -80h-17q-153 0 -153 99q0 17 11.5 69.5t11.5 192.5l1 36v37l3 93v114l1 57q0 433 -5 492t-26 118.5t-21 89.5z" />
<glyph unicode="m" horiz-adv-x="1674" d="M125 148q0 38 18.5 101.5t23 139.5t4.5 244l5 257q0 60 67 60q29 0 97.5 -30.5t113.5 -30.5l27 7l66 24q57 18 127 18t114.5 -19.5t82.5 -48t53.5 -28.5t115 67.5t177.5 67.5h38q71 0 129 -43t86.5 -113t37.5 -202l3 -43q2 -29 3 -86l2 -87q3 -71 21 -138t18 -83 q0 -77 -36 -115t-120 -38q-41 0 -57 36q-7 16 -7 106l-6 317q0 178 -39.5 255.5t-143.5 77.5q-49 0 -87 -34t-57 -95q-35 -116 -35 -364q0 -36 10 -98t10 -77q0 -95 -158 -95q-83 0 -109 21.5t-26 43t9.5 87t9.5 239t-26 276.5t-108 103q-54 0 -111 -39t-85.5 -119 t-28.5 -444q0 -137 -2 -144q-13 -49 -88.5 -49t-107 38.5t-31.5 76.5z" />
<glyph unicode="n" horiz-adv-x="1158" d="M114 102.5q0 37.5 22 97.5q32 91 32 353t-9.5 309t-9.5 55q0 51 116 51q42 0 92.5 -40t73 -40t65.5 23.5t96 44.5t126 21q272 0 272 -345q0 -32 8.5 -182.5t22.5 -191.5q32 -92 32 -107q0 -62 -29 -83.5t-106 -21.5t-104 32q-14 17 -14 84l2 21q0 4 2 45v105 q0 285 -41 391q-46 117 -163 117q-61 0 -112 -33.5t-74 -74.5q-48 -86 -48 -374q0 -96 9 -150t9 -66q0 -111 -148 -111q-69 0 -95.5 16.5t-26.5 54z" />
<glyph unicode="o" horiz-adv-x="1136" d="M143 472v53q0 105 37 203q72 192 233 272q74 37 171 37h16q94 0 172 -41q162 -84 217 -280q25 -86 25 -181l-1 -17q0 -208 -113 -360q-59 -79 -145 -122t-168 -43h-47q-155 0 -276 132q-49 54 -85 149t-36 198zM341 490q2 -24 2 -35q0 -129 69.5 -230t152.5 -101h19 q41 0 86 27t76 85q58 110 58 249v48q0 136 -64 257q-25 48 -71 78.5t-86 30.5h-27q-90 0 -152.5 -106.5t-62.5 -242.5v-60z" />
<glyph unicode="p" horiz-adv-x="1145" d="M131 -302q0 33 16 77t24 80t19 211.5t11 280.5l2 49q1 25 1 49l1 24q1 25 1 49l2 98q0 182 -17.5 251t-17.5 71q0 56 91 56q49 0 94 -24.5t84 -24.5q7 0 48 22.5t79.5 38t98.5 15.5h22q63 0 128 -32.5t113 -91.5q93 -114 93 -305v-53q0 -103 -42 -205q-83 -204 -253 -270 q-67 -26 -171.5 -26t-142.5 -28t-38 -78t23.5 -110.5t23.5 -98.5t-41 -69.5t-107 -31.5h-21q-124 0 -124 76zM398 465l1 -11l1 -32l3 -52q0 -97 49.5 -160t124.5 -63h17l8 1q92 0 152.5 107.5t60.5 240.5v70q0 135 -59.5 224t-139.5 89h-17q-80 0 -137.5 -73t-57.5 -191 l-2 -21q-2 -21 -2 -32l-2 -65v-32z" />
<glyph unicode="q" horiz-adv-x="1152" d="M140 523v51q0 193 123 333q51 58 121 92t140 34t168.5 -34.5t110.5 -34.5l13 5l28 14q25 11 45 11q57 0 77 -71q3 -11 3 -299l4 -216q1 -24 1 -48l1 -24q1 -24 1 -47l2 -47q2 -47 2 -70l3 -69q3 -69 3 -123.5t9.5 -90.5t29 -82.5t19.5 -96.5q0 -94 -154 -95 q-132 0 -132 106q0 9 17 79t17 127.5t-13 72.5q-34 39 -116 39l-143 -9q-71 0 -146 40q-147 77 -202 256q-32 105 -32 197zM340 496q0 -136 60.5 -243.5t143.5 -107.5h32q77 0 133 76.5t56 210.5l3 32l2 56v56q0 326 -182 326h-35q-31 0 -77 -27.5t-76 -84.5 q-60 -113 -60 -234v-60z" />
<glyph unicode="r" horiz-adv-x="814" d="M127 89q0 32 19.5 81t24.5 109.5t5 267.5t-19.5 274t-19.5 89q0 63 131 63q65 0 89.5 -16.5t37.5 -47.5t29 -31q7 0 78 54t130 54h15q50 0 80.5 -26.5t30.5 -80.5q0 -84 -96 -84l-96 7q-185 0 -185 -384q0 -124 24 -202.5t24 -98.5q0 -52 -44 -80.5t-122 -28.5h-52 q-41 0 -62.5 24.5t-21.5 56.5z" />
<glyph unicode="s" horiz-adv-x="921" d="M97 181q0 74 48 74q12 0 117.5 -66.5t218.5 -66.5q62 0 105.5 38.5t43.5 99t-76 111.5q-27 18 -166.5 79t-202.5 124t-63 172t90.5 187t226.5 78h27q157 0 236.5 -35.5t79.5 -130.5q0 -61 -53 -61q-9 0 -104 50t-168 50t-112.5 -35t-39.5 -87.5t69 -97.5 q36 -24 171.5 -81t191.5 -106q85 -75 85 -195t-93.5 -203t-246.5 -83h-26q-272 0 -334 103q-25 40 -25 82z" />
<glyph unicode="t" horiz-adv-x="758" d="M87 926.5q0 37.5 40 55.5q66 30 77.5 47t30.5 93t33 100q31 51 71.5 51t57 -23.5t31 -94t43.5 -102.5t99 -50t70 -61q0 -53 -85 -77.5t-104 -72.5q-28 -70 -28 -285t34 -274t120 -74t86 -56.5t-38 -63.5q-58 -33 -143 -33q-160 0 -220 129q-40 85 -40 373l-1 41v41l-2 82 q0 91 -25 141q-14 28 -60.5 52t-46.5 61.5z" />
<glyph unicode="u" horiz-adv-x="1145" d="M105 917v21q0 45 84 45h26q95 0 118 -64q18 -50 18 -282l2 -111q1 -28 1 -55q0 -165 43.5 -243t141.5 -78q52 0 105.5 28t86.5 83q53 89 53 329q0 80 -10.5 182.5t-10.5 106.5q0 54 38.5 77t138.5 23q31 0 42 -25.5t11 -143.5l-12 -368q0 -165 16 -234l12 -42 q9 -34 9 -41v-21q0 -18 -19 -35q-34 -31 -129 -31q-32 0 -70 28.5t-53 28.5t-102 -44.5t-158 -44.5h-26q-171 0 -260 159q-44 79 -44 338t-26 330t-26 84z" />
<glyph unicode="v" horiz-adv-x="1035" d="M57 910v15q0 64 82 64h22q119 0 158 -73q6 -12 28 -109.5t99 -317.5t92 -220q21 0 111 257t100.5 325t17.5 81q30 57 98 57h41q72 0 72 -55v-15q0 -28 -57 -124.5t-162 -368.5t-135 -334q-41 -85 -108 -85t-104 74q-24 48 -134.5 334t-186.5 409q-34 55 -34 86z" />
<glyph unicode="w" horiz-adv-x="1506" d="M79 877v24q0 78 91.5 78t129.5 -88q15 -35 37 -132t40 -161q74 -265 102 -265q36 0 107 251q13 46 37.5 169t35.5 145q35 68 137 68q80 0 124 -202q16 -76 39 -158q75 -273 103 -273q33 0 107 244q27 90 51 197.5t35 132.5q33 71 98 71q78 0 78 -84q0 -45 -38 -125.5 t-110 -295.5l-48 -149q-55 -170 -60 -181q-45 -102 -110 -102t-119 107q-28 56 -104.5 276t-92.5 220q-10 0 -83.5 -214.5t-119.5 -301t-96 -86.5q-34 0 -68.5 30t-53.5 76t-87.5 268.5t-115 321t-46.5 139.5z" />
<glyph unicode="x" horiz-adv-x="1053" d="M99 37q0 9 150.5 217.5t150.5 244.5t-129 223l-152 221q0 31 22.5 45t115.5 14h25q86 0 117 -45q8 -12 22 -56t33 -80q73 -139 93 -139q27 0 102 135q26 47 37 94.5t23 60.5q24 28 118 28t94 -30q0 -21 -134.5 -197.5t-134.5 -235.5q0 -21 96 -168.5t151 -212.5t55 -91 v-17q0 -42 -117 -42t-144 24.5t-42.5 71.5t-31.5 80q-91 182 -121 182q-25 0 -114 -161q-25 -45 -39.5 -97t-20.5 -60q-29 -41 -150 -41q-75 0 -75 32z" />
<glyph unicode="y" d="M102 909v20q0 24 28.5 43.5t77.5 19.5q120 0 154 -79q1 -2 19.5 -91t89.5 -290t78 -201q31 0 128 307q46 145 56 220.5t15 86.5q25 55 112.5 55t87.5 -64q0 -14 -54 -142t-180 -488t-182 -470q-112 -224 -275 -224q-52 0 -84 19.5t-32 49.5q0 54 88 85.5t132 87.5 q69 88 69 182t-108.5 362.5t-126.5 305.5q-93 190 -93 205z" />
<glyph unicode="z" horiz-adv-x="988" d="M90 58q0 57 40 118t256 351.5t216 318.5q0 23 -103 23t-187 -16l-23 -5l-43 -11q-56 -12 -78 -12q-58 0 -58 76q0 49 34 76t90 27h24l26 -1l239 -2q286 0 321 -8t35 -56q0 -75 -254 -396t-254 -369q0 -26 127.5 -26t222 23.5t124.5 23.5q59 0 59 -73q0 -83 -81 -100 q-42 -9 -354 -9h-54l-81 -1h-107q-137 0 -137 48z" />
<glyph unicode="{" horiz-adv-x="788" d="M120 603.5q0 38.5 63.5 71t92.5 79t29 176.5l-7 228q0 255 179 331q70 30 158 30q40 0 40 -23q0 -45 -72.5 -101.5t-89.5 -87.5q-32 -58 -32 -205l5 -174q0 -181 -80 -254q-26 -23 -58.5 -45t-32.5 -25.5t26.5 -20.5t56.5 -42q86 -71 87 -297l-3 -76q-2 -51 -2 -75 q0 -123 24 -176.5t96 -105.5t72 -106q0 -21 -58.5 -21t-130.5 25t-119 86q-66 85 -66 279l7 228q0 104 -31 152t-92.5 79.5t-61.5 70z" />
<glyph unicode="|" horiz-adv-x="704" d="M276 506v583q0 345 6.5 383t57.5 38h37q43 0 49 -50q4 -36 4 -280v-726q0 -694 -4.5 -749t-58.5 -55h-37q-50 0 -50 70l-2 79v242l-1 20v364z" />
<glyph unicode="}" horiz-adv-x="785" d="M117 -299q0 49 72.5 104t97 109.5t24.5 202.5l-3 75q-1 25 -1 112q0 170 120 260l19 13q33 21 33 23q0 8 -28 26q-83 54 -111.5 123t-28.5 228l4 200q0 73 -26 120t-97 98.5t-71 99.5q0 24 36 24h22q66 0 133 -28.5t108 -78.5q70 -85 70 -302l-9 -203q0 -106 28.5 -153 t92.5 -80.5t64 -70t-67 -73t-93.5 -90.5t-26.5 -187l7 -203q0 -271 -193 -344q-65 -24 -120.5 -24t-55.5 19z" />
<glyph unicode="~" horiz-adv-x="1197" d="M112 576v23q0 71 85 151.5t175 80.5h24q84 0 227 -80t201 -80t128 70t86 70q50 0 50 -54q0 -80 -83.5 -159t-176.5 -79h-25q-71 0 -218.5 80t-206 80t-130.5 -72t-87 -72q-49 0 -49 41z" />
<glyph unicode="&#xa1;" horiz-adv-x="670" d="M205 993v19l4 26q0 30 24.5 50.5t65.5 20.5l27 3h18l35 -4q81 0 81 -70q2 -8 2 -11l2 -15v-28q0 -39 -22 -65.5t-67 -26.5l-18 -3h-9l-14 -1h-4l-23 2l-26 4q-73 0 -73 76zM228 -151l1 12l4 105q3 36 4.5 66t3 54l3 48t1.5 36l4 61l2 25q4 52 4 73l3 50q6 72 8 109l3 56 q1 18 1 64q0 105 60 105h10q58 0 58 -139q3 -36 4 -54.5l2 -37t1 -30.5l2 -25q5 -65 6 -87t2 -40l2 -36l2 -36l2 -36t2 -36.5t2 -36.5t2.5 -42.5t1.5 -36.5l2 -24l1 -24l3 -59l2 -47l2 -57v-45q0 -53 -20 -78.5t-82 -25.5h-22q-50 0 -68.5 23.5t-18.5 78.5v67z" />
<glyph unicode="&#xa2;" horiz-adv-x="1137" d="M191 549v28q0 96 30.5 192.5t84.5 160t174 114.5t137 65.5t50.5 75.5t56.5 61q35 0 60 -58.5t85 -135.5t60 -119q0 -65 -64 -65q-17 0 -62 21t-65 21q-53 0 -73 -92q-57 -262 -57 -442q0 -55 27.5 -89t67 -34t104.5 20t73 20q45 0 45 -43t-101 -105.5t-140 -106.5 q-92 -104 -108 -104h-9q-16 0 -39 41t-149.5 183t-127.5 144q-60 105 -60 247zM373 592l1 -10q0 -111 30 -186q50 -125 97 -125l5 1h5q28 0 28 52l3 24q2 16 2 24l3 39l2 31q2 16 2 24l3 32l2 32q2 16 2 30l51 342v22q0 41 -20 41h-12q-74 0 -149 -122q-55 -89 -55 -232v-19 z" />
<glyph unicode="&#xa3;" horiz-adv-x="1168" d="M141 78q0 47 59 124t86 139.5t27 135.5t-15 98t-72.5 57t-57.5 62t13.5 46t37.5 40t30 36t35 175q28 163 90 243q126 162 338 162h34q108 0 183 -42.5t75 -94.5q0 -70 -75 -70q-12 0 -88 23t-118 23q-108 0 -168 -83.5t-60 -188.5t30 -135t128.5 -62.5t98.5 -73.5 q0 -47 -93.5 -74.5t-122.5 -70.5q-71 -108 -71 -289q0 -46 33.5 -66t116.5 -20t199 16t130 16q111 0 111 -80q0 -64 -56 -96.5t-142 -32.5h-66q-30 0 -185 13.5t-259 13.5l-96 -3q-110 0 -110 59z" />
<glyph unicode="&#xa4;" horiz-adv-x="1207" d="M174 251.5q0 15.5 53.5 79t53.5 83t-14 59t-26.5 84t-12.5 117t26.5 160t26.5 96.5q0 27 -52.5 84.5t-52.5 77.5t29.5 51.5t48.5 31.5t68 -52t88 -52q8 0 42 15t69.5 27.5t94.5 12.5t134.5 -26.5t82.5 -26.5q24 0 73 51t68.5 51t44 -28.5t24.5 -44.5t-52.5 -76t-52.5 -92 q0 -11 15 -56.5t25 -85.5t10 -111t-27.5 -162t-27.5 -93q0 -23 53.5 -82t53.5 -80.5t-28.5 -52t-47.5 -30.5t-68.5 53.5t-87.5 53.5q-11 0 -71 -28q-57 -27 -127 -27h-5q-73 0 -137 25l-35 15q-29 11 -50 11t-72.5 -51.5t-68.5 -51.5t-42.5 27.5t-25.5 43zM359 682l1 -10 q0 -130 70.5 -213.5t158.5 -83.5h34q97 0 165.5 87.5t68.5 213.5v11q0 129 -71 213t-167 84h-17l-9 -1q-96 0 -165 -87.5t-69 -213.5z" />
<glyph unicode="&#xa5;" horiz-adv-x="1201" d="M155 1302q0 48 39.5 69.5t92.5 21.5q105 0 133 -45q1 -1 14 -73t63 -197q113 -285 142 -285q22 0 103.5 202.5t90 270t13.5 79.5q21 47 111 47t90 -59v-24l-109 -203q-92 -171 -92 -253q0 -41 40.5 -88.5t40.5 -64.5q0 -26 -82 -67.5t-82 -78.5t84 -72.5t84 -52.5 t-94 -74t-94 -128l21 -125q0 -103 -169 -103h-36q-54 0 -87.5 26t-33.5 59.5t10 72t10 41.5q0 49 -27 84.5t-91.5 76.5t-64.5 67q0 17 83 49t83 75q0 35 -82.5 78.5t-82.5 64.5t40.5 69t40.5 95t-101 240.5t-101 204.5z" />
<glyph unicode="&#xa6;" horiz-adv-x="741" d="M284 291v44q0 64 9 77t47 13h39q49 0 49 -34l1 -17v-17l1 -17v-71l-1 -17v-220l1 -26v-159l1 -26v-35q0 -56 -9 -69t-46 -13h-39q-44 0 -49 34q-3 22 -3 204v313zM284 830v115l1 9v254l-1 27v167q0 71 49 71h46q51 0 51 -69v-132l-1 -8v-343l1 -35v-53q0 -57 -10.5 -68.5 t-45.5 -11.5h-40q-50 0 -50 77z" />
<glyph unicode="&#xa7;" horiz-adv-x="1120" d="M206 667v30q0 66 47 151t47 98t-43 99q-20 53 -20 119q0 111 90.5 195.5t228.5 84.5h33q121 0 213.5 -50.5t92.5 -117t-73 -66.5q-16 0 -86.5 56t-149.5 56t-126.5 -42t-47.5 -102.5t60 -117.5q29 -28 157.5 -115.5t197 -172t68.5 -210.5q0 -77 -33 -144q-4 -7 -29 -49 t-25 -58t32 -90.5t32 -144t-29.5 -128.5t-75.5 -96q-98 -79 -231 -79h-32q-112 0 -202 53q-89 53 -89 113q0 68 67 68q23 0 91.5 -57.5t152 -57.5t131.5 44.5t48 109t-42.5 110t-181 141.5t-206 184t-67.5 186zM350 722q0 -94 77 -178q191 -208 260 -208h11q16 0 49.5 37.5 t33.5 89.5v34q0 66 -63 129q-231 231 -293 231h-5q-18 0 -44 -35.5t-26 -92.5v-7z" />
<glyph unicode="&#xa8;" horiz-adv-x="896" d="M167 1343v12l1 3l3 27q1 4 1 7q0 64 58 64q23 5 24 5l14 1h7l4 -1q84 0 84 -65l5 -34v-28l-4 -26q0 -69 -65 -69q-8 -2 -10 -2l-18 -2h-10l-37 6q-53 0 -53 68l-3 15v7zM568 1342v12l1 4l3 26q1 4 1 7q0 67 68 67l17 3h28q80 0 80 -76l3 -23v-27q0 -96 -69 -96 q-6 -2 -10 -2l-14 -2h-18l-27 4q-58 0 -58 65l-2 8z" />
<glyph unicode="&#xa9;" horiz-adv-x="1576" d="M159 665v47q0 118 46 244t133 225t207 157.5t242 58.5h41h4q108 0 220 -55q214 -104 302 -337q53 -141 53 -284v-47q0 -136 -47 -262q-99 -264 -327 -369q-116 -53 -231 -53h-21q-126 0 -241 53t-199.5 146.5t-133 217.5t-48.5 258zM260 675q0 -244 156 -419 q74 -84 169 -130t190 -46h36q90 0 189.5 45t177.5 139q147 178 147 427l-1 20q0 117 -42.5 231.5t-119.5 197.5t-169.5 125t-179.5 42h-36q-95 0 -189 -45q-201 -97 -285 -322q-43 -116 -43 -225v-40zM416 663v42q0 75 30 157q59 162 210 223q68 27 129 27h39 q121 0 191.5 -34t70.5 -126q0 -38 -36 -38q-12 0 -81 49.5t-160.5 49.5t-155 -88t-63.5 -240.5t71 -229.5t182 -77q59 0 126.5 41.5t97.5 41.5t30 -26q0 -55 -87.5 -108t-190.5 -53h-39q-149 0 -253 108q-51 53 -81 128.5t-30 152.5z" />
<glyph unicode="&#xaa;" horiz-adv-x="754" d="M116 912v15q0 138 190 204q21 8 65.5 20.5t69.5 27.5t25 51.5t-27 62t-76 25.5t-109.5 -37.5t-85.5 -37.5q-52 0 -52 44t80.5 84t174.5 40h17q104 0 164 -48.5t60 -146.5l-2 -61l-3 -45l-3 -29q-4 -58 -4 -75l-2 -30v-29q0 -44 23.5 -73t23.5 -51q0 -56 -106 -56 q-18 0 -48 19t-43.5 19t-63.5 -23t-88 -23h-27q-66 0 -109.5 41.5t-43.5 111.5zM238 921q0 -54 50 -54l19 -3h12q12 3 34.5 3t64.5 34t42 64l3 10l3 22v8l2 18v35q0 19 -22 19h-3q-24 -6 -39 -6q-59 0 -112.5 -42.5t-53.5 -89.5v-18z" />
<glyph unicode="&#xab;" horiz-adv-x="1053" d="M125 547q0 5 171.5 210.5t213.5 205.5h9q38 0 38 -34v-8q0 -24 -80 -132.5t-128 -166t-48 -71.5t128 -178.5t128 -200.5v-8q0 -32 -45 -32t-181 163q-206 247 -206 252zM515 547q0 20 172 215t206 195h9q39 0 39 -33q0 -41 -125.5 -202.5t-125.5 -173.5t125.5 -173 t125.5 -199.5t-41 -38.5t-213 195t-172 215z" />
<glyph unicode="&#xac;" horiz-adv-x="1225" d="M103 713v28q0 28 29 28h15l14 -1l422 -1q459 0 480 -7q43 -14 43 -258v-32l2 -62v-30l7 -117v-14q0 -27 -27 -27q-77 0 -100 38.5t-23 182t-51 171.5q-27 15 -375 15t-375 5q-61 11 -61 81z" />
<glyph unicode="&#xad;" horiz-adv-x="798" d="M106 495v50q0 68 32.5 76t267.5 8l173 3h52q60 0 60 -45v-29l-1 -7v-7q0 -69 -34 -77t-273 -8h-52l-23 -1h-60l-30 -1h-52q-60 0 -60 38z" />
<glyph unicode="&#xae;" horiz-adv-x="1422" d="M203 710v42q0 125 42.5 245.5t114.5 208.5q156 189 373 189h55q100 -1 192 -51q185 -101 255 -307q49 -143 49 -251v-41q0 -252 -162 -421t-391 -169h-52q-177 0 -326.5 161t-149.5 394zM290 732q0 -204 131 -353q55 -63 133 -102t162 -39h30q82 0 164.5 39.5t149 116 t102.5 177.5t36 200v35q0 96 -34 188q-67 182 -224 264q-81 42 -168 42h-30q-82 0 -165 -41.5t-149 -117t-102 -177t-36 -197.5v-35zM492 489v14q0 5 11 37t11 82l4 159l6 96l3 95q0 74 -6.5 102.5t-6.5 31.5q0 32 176 32l29 1q135 0 198 -48t63 -156q0 -58 -51.5 -127.5 t-51.5 -74t21.5 -42.5t42 -77t55.5 -90.5t35 -68.5q0 -28 -53 -28t-73 16t-92 141q-51 89 -98 89q-61 0 -61 -91q0 -28 9.5 -59.5t9.5 -48.5q0 -50 -60.5 -50t-90.5 13t-30 52zM629 846q0 -46 31 -46h36l4 1l58 4l19 3q46 0 75.5 35.5t29.5 75.5l-1 5q0 53 -37.5 84.5 t-111.5 31.5h-5l-5 -1h-5q-62 0 -75 -15.5t-13 -116.5v-61z" />
<glyph unicode="&#xaf;" horiz-adv-x="875" d="M82 1353v45q0 37 340 37h318q53 0 53 -37v-46q0 -37 -356 -37h-293q-62 0 -62 38z" />
<glyph unicode="&#xb0;" horiz-adv-x="882" d="M122 1148v42q0 97 86.5 170t180.5 73h47q98 0 175.5 -71t77.5 -171v-17q0 -97 -83.5 -174t-193.5 -77h-38q-98 0 -175 70.5t-77 154.5zM263 1161q0 -61 40 -108t78 -47l10 -2h19l24 2q32 0 71.5 45t39.5 94l3 28v17q-3 15 -3 27q0 49 -42 91t-74 42l-24 3h-9 q-44 0 -88.5 -44.5t-44.5 -113.5v-34z" />
<glyph unicode="&#xb1;" horiz-adv-x="1239" d="M127 723v16q0 51 32 58q17 4 185.5 4t186.5 12t18 150.5t10.5 156.5t56.5 18h38q39 0 46 -19.5t7 -159.5t29 -152q12 -5 182.5 -5t190.5 -7.5t20 -45.5v-17q0 -49 -27.5 -57.5t-194 -8.5t-178.5 -8q-23 -15 -23 -153t-9.5 -155.5t-55.5 -17.5h-19q-58 0 -65.5 21.5 t-7.5 152.5t-16 145.5t-189 14.5t-195 9t-22 48zM129 65v20l1 10q0 45 37 51q20 3 295 3h607q58 0 58 -52v-20l-1 -9q0 -44 -25 -49.5t-228 -5.5h-686q-58 0 -58 52z" />
<glyph unicode="&#xb2;" horiz-adv-x="802" d="M117 749q0 43 50 103.5t144 147.5t133 141.5t39 108.5t-31.5 85.5t-85 31.5t-121 -48.5t-89.5 -48.5q-39 0 -39 43v14q0 60 106 111q78 38 178 38t167 -57t67 -162q0 -65 -44 -127.5t-166 -164.5t-122 -133q0 -21 131 -21q43 0 108 9.5t74 9.5q43 0 43 -54v-15 q0 -67 -91 -67l-17 1l-188 3q-184 0 -207 3q-39 5 -39 48z" />
<glyph unicode="&#xb3;" horiz-adv-x="803" d="M110 788v12q0 41 51 41q18 0 82.5 -29t124.5 -29t98 38t38 94.5t-36.5 87.5t-113 45.5t-76.5 57.5q0 25 63 49.5t93 57t30 83.5q0 72 -123 72q-35 0 -97.5 -26t-75.5 -26q-32 0 -32 42t75 79.5t179 37.5h20q94 0 151 -38.5t57 -118.5t-80 -151q-39 -35 -39 -42 t47.5 -30.5t79 -64t31.5 -91.5v-19q0 -99 -81 -168.5t-210 -69.5h-41q-77 0 -146 33.5t-69 72.5z" />
<glyph unicode="&#xb4;" horiz-adv-x="821" d="M253 1181q0 27 171 247q48 62 138 62h22q66 0 66 -28q0 -62 -222 -235q-78 -61 -121 -61h-32q-22 0 -22 15z" />
<glyph unicode="&#xb5;" horiz-adv-x="1146" d="M151 872v25q0 66 74 66q96 0 122 -58q16 -36 16 -322t18.5 -346.5t57.5 -88t90 -27.5t100 34.5t78.5 106t29.5 336.5l2 62q1 31 1 115.5t29.5 124t96 39.5t84.5 -65q10 -37 10 -275.5t6.5 -290t27.5 -105.5t21 -67q0 -86 -98 -86q-52 0 -101.5 32.5t-67 32.5t-58.5 -18 l-44 -21q-23 -11 -66 -27t-160 -16q-39 0 -51.5 -41t-12.5 -158.5t-28 -157t-83 -39.5h-24h-1q-66 0 -66 125q0 58 10 220.5t10 410.5t-12 375z" />
<glyph unicode="&#xb6;" horiz-adv-x="1208" d="M198 1006v39q0 87 44.5 174.5t110.5 132.5q97 66 330 66l34 -1h35q185 0 221 -30l12 -19q0 -34 -27 -118t-27 -170.5t10.5 -286t10.5 -440.5v-399l3 -116q0 -80 -58 -80q-34 0 -47 72t-13 357l-4 291q0 129 -10 321.5t-10 263t-8.5 86.5t-58 16t-56.5 -21q-1 -3 -1 -88 v-121l1 -107q0 -241 -8 -433t-8 -322.5t-15.5 -212t-59 -81.5t-54.5 55.5t-11 480.5q0 178 -25.5 241t-114 123t-127.5 116q-69 100 -69 211z" />
<glyph unicode="&#xb7;" horiz-adv-x="648" d="M219 613v33l2 18l4 22q0 33 28 56.5t78 23.5h12q15 -3 25 -3q85 0 85 -123v-19l-4 -37q0 -40 -23.5 -63.5t-52.5 -23.5l-32 -5h-13q-59 0 -84 30t-25 91z" />
<glyph unicode="&#xb8;" horiz-adv-x="822" d="M231 -370q1 49 63 49q140 0 140 87q0 31 -50 56t-50 57t40 106q16 30 56 30h15q26 0 26 -19l-11 -62q0 -6 62 -56.5t62 -112.5v-8q0 -71 -65 -116t-172 -45h-43q-73 0 -73 34z" />
<glyph unicode="&#xb9;" horiz-adv-x="773" d="M178 1355v7q0 20 35 38q134 67 187 67h10q35 0 45.5 -43t10.5 -267.5t8 -258.5t45.5 -78t37.5 -74v-10q0 -52 -127 -52h-68q-69 0 -120 32q-17 11 -17 38t39 69t48.5 74t9.5 172l-4 97q0 70 -20 101t-70 50t-50 38z" />
<glyph unicode="&#xba;" horiz-adv-x="783" d="M107 1023v33q0 155 95.5 257.5t231.5 102.5h11q103 0 171 -73.5t68 -181.5v-55q0 -138 -91 -243t-225 -105h-30q-102 0 -166.5 76t-64.5 189zM266 1059q3 -21 3 -36q0 -75 38.5 -124.5t81.5 -49.5h23q51 0 82.5 63t31.5 157v31q0 93 -33 159t-85 66h-22 q-57 0 -88.5 -63.5t-31.5 -141.5v-61z" />
<glyph unicode="&#xbb;" horiz-adv-x="1053" d="M149 177q0 37 187 277q66 84 66 94.5t-126 172.5t-126 200t34 38h9q42 0 209.5 -201t167.5 -209q0 -21 -173 -215.5t-205 -194.5h-8q-35 0 -35 38zM533 171q0 37 129 203t129 172t-64 93l-21 28q-9 10 -12.5 15.5t-22.5 29t-23 29.5q-114 155 -114 192q0 32 37 32 t213 -198t176 -216q0 -35 -180 -226t-203 -191h-9q-35 0 -35 37z" />
<glyph unicode="&#xbc;" horiz-adv-x="1622" d="M167 1285q0 19 31 37q129 76 185 76h9q40 0 47.5 -54t7.5 -255.5t4.5 -233t33.5 -87t29 -69.5v-10q0 -38 -46 -58q-18 -8 -82 -8l-22 -1q-69 0 -102.5 26t-33.5 54t24 63.5t37 65.5q13 29 13 99v94l-2 43q0 75 -41 139q-13 21 -52.5 40.5t-39.5 38.5zM341 -3q0 12 49 98 q410 724 732 1215q47 72 99 72h16q38 0 38 -12q0 -53 -783 -1314q-44 -71 -97 -71h-16q-38 0 -38 12zM926 253v10q0 35 224 343q115 158 147 158h34q51 0 58 -35q1 -5 1 -90l-1 -13v-27l-2 -55q0 -174 11.5 -212t33.5 -52q47 -29 47 -36v-7q0 -59 -26 -77q-41 -28 -41 -41 q4 -40 4 -55q0 -56 -25.5 -71t-94.5 -15l-12 1q-54 0 -54 104l4 31q0 14 -24 27q-67 36 -151 36t-108.5 19.5t-24.5 56.5zM1028 281.5q0 -5.5 7 -5.5h102l4 1l78 5q4 1 8 1q25 0 25 171v9l1 10v9l1 14v10l1 14v10l1 18v37l-2 1q-2 0 -44.5 -60t-46.5 -66l-30 -42l-25 -35 q-4 -8 -42 -52t-38 -49.5z" />
<glyph unicode="&#xbd;" horiz-adv-x="1623" d="M153 1291q0 25 39 43q146 69 177 69h9q40 0 47.5 -53t7.5 -261t6.5 -242t34 -78t27.5 -70v-10q0 -24 -25 -45t-71 -21h-77h-3q-38 0 -73 25q-36 26 -36 54t26 69.5t37 71.5t11 149.5t-20 173t-68.5 83.5t-48.5 42zM316 7q0 59 762 1287q57 92 105 92h16q45 0 45 -20 q0 -56 -773 -1301q-48 -77 -94 -77h-16q-45 0 -45 19zM971 18v13q0 69 151.5 215t183.5 192.5t32 103.5t-36 86t-86 29t-117.5 -50.5t-76.5 -50.5q-43 0 -43 53t80 105.5t180 52.5h21q99 0 164.5 -58t65.5 -143t-46.5 -149.5t-166 -164t-119.5 -131.5q0 -18 91.5 -18 t146.5 6.5t64 6.5q49 0 49 -62q0 -67 -89 -67h-53l-18 1h-131q-247 0 -247 30z" />
<glyph unicode="&#xbe;" horiz-adv-x="1651" d="M135 727v13q0 38 56 38q20 0 78 -30t120 -30t97.5 38.5t35.5 94.5q0 107 -148 130q-77 12 -77 56q0 31 60 49q126 39 126 137q0 30 -28.5 53.5t-75.5 23.5t-112.5 -29.5t-72.5 -29.5q-33 0 -33 42t71 81.5t176 39.5h20q97 0 150.5 -43t53.5 -121t-75 -142 q-37 -33 -37 -39q0 -5 42 -27q110 -57 110 -164v-19q0 -106 -89.5 -167.5t-200.5 -61.5t-179 34t-68 73zM400 1q0 7 45 86q398 703 743 1229q43 66 85 66h16q47 0 47 -17q0 -9 -46 -88q-480 -826 -724 -1199q-61 -93 -103 -93h-16q-47 0 -47 16zM975 262q0 68 306 456 q36 46 74 46h12q53 0 67 -24q2 -3 2 -186t9 -220t46 -61.5t37 -34.5q0 -59 -25 -78q-42 -32 -42 -39q4 -40 4 -70.5t-18.5 -50.5t-75.5 -20l-25 -2h-12q-56 0 -56 92l2 22q2 22 2 29.5t-17 15.5q-78 39 -157.5 39t-106 20t-26.5 66zM1077 281q0 -6 23 -6h30l4 1h43 q100 0 112 12t12 90v90l1 9v15l1 9v14l1 5v9l1 19v33q0 5 -2 5t-44.5 -60t-47.5 -68t-10 -13l-2 -4l-16 -22q-4 -5 -13 -20t-51 -63.5t-42 -54.5z" />
<glyph unicode="&#xbf;" horiz-adv-x="995" d="M129 37q0 175 170 325q116 104 150.5 148.5t34.5 147.5q0 57 44 57q50 0 72 -33t22 -111.5t-36 -137t-111 -140t-103.5 -136.5t-28.5 -127t49 -119t125 -47t159 54t125 54q57 0 57 -71v-14q0 -66 -108.5 -127.5t-220.5 -61.5h-58q-134 0 -238 96t-104 243zM437 993v31 l1 4v9q2 8 2 13q0 38 24.5 58.5t65.5 20.5h32q9 -3 30 -3t45.5 -24.5t24.5 -65.5q2 -10 2 -13l2 -23v-13q0 -62 -22 -88.5t-79 -26.5h-20q-46 0 -74.5 24t-28.5 62l-3 12z" />
<glyph unicode="&#xc0;" horiz-adv-x="1354" d="M98 174.5q0 34.5 37 85t78 141t183 479t146 395.5q49 96 123 96h26q80 0 135 -113q39 -81 166.5 -449t197.5 -498q15 -28 47 -67.5t32 -79.5t-69 -90q-31 -23 -96 -23h-24q-80 0 -108 40q-10 14 -16 65.5t-10 69.5q-32 158 -78 202.5t-224.5 44.5t-215 -39t-68.5 -190 q-10 -46 -14 -98t-9 -62q-16 -32 -102 -32q-45 0 -91 44t-46 78.5zM411 1770v8q0 32 67 32h27q10 -2 16 -2q58 0 108 -44t166 -193q28 -36 28 -53v-4q0 -12 -27 -12h-10q-74 0 -145 55q-230 179 -230 213zM485 575q0 -17 59 -17h221q14 2 34 2t20 15v12q0 68 -147 509 q-15 45 -18.5 45t-23.5 -75.5t-82.5 -263t-62.5 -221.5v-6z" />
<glyph unicode="&#xc1;" horiz-adv-x="1354" d="M100 171q0 15 63 124.5t157.5 369t136.5 387t76.5 198.5t69.5 97t88 26t83 -30t60.5 -98.5t99.5 -267.5t89 -250q166 -422 204.5 -471.5t38.5 -81.5q0 -62 -84 -105q-29 -15 -107 -15t-107 39q-10 14 -14.5 62.5t-9.5 71.5q-32 156 -77.5 201.5t-224 45.5t-216 -41.5 t-69.5 -190.5q-8 -39 -12.5 -94.5t-9.5 -65.5q-16 -33 -75 -33t-93 25q-67 49 -67 97zM485 577q0 -17 72 -17h50l7 1h58l44 -1h49q53 0 53 22q0 79 -144 511q-18 53 -19.5 53t-17.5 -47q-152 -456 -152 -517v-5zM550 1525l1 4v5q0 17 43 66t78 94t80 84.5t124 39.5h11 q75 0 75 -29v-8q0 -61 -224 -210q-90 -60 -148 -60h-16q-24 0 -24 14z" />
<glyph unicode="&#xc2;" horiz-adv-x="1349" d="M91 176q0 32 35.5 82.5t69.5 119.5t120 301t135 378t86 219q51 99 141 99t143 -114q6 -14 170 -462t217.5 -523t53.5 -100q0 -47 -68 -97q-33 -24 -117.5 -24t-111.5 41q-11 17 -15 58t-11 76q-32 159 -77.5 203t-225.5 44t-217 -41t-68 -189q-10 -47 -14 -99.5t-9 -61.5 q-18 -33 -78 -33h-23q-49 0 -92.5 45.5t-43.5 77.5zM372 1526q0 55 199 237q50 46 108 46h8q55 0 101 -42q203 -186 203 -242q0 -15 -62 -15t-127 60q-112 103 -128 103t-117 -101q-63 -63 -137 -63h-8q-40 0 -40 17zM478 578q0 -14 33 -14l33 -3h214q14 2 20 2q34 0 34 21 q0 74 -147 515q-15 45 -18.5 45t-23.5 -75.5t-82.5 -263t-62.5 -221.5v-6z" />
<glyph unicode="&#xc3;" horiz-adv-x="1349" d="M90 177.5q0 30.5 44 94.5t148.5 330.5t157 425t85 227.5t69 95.5t90.5 26.5q84 0 136 -112q8 -17 171 -463t217.5 -522.5t54.5 -98.5q0 -50 -70 -97q-36 -24 -119 -24t-111 38q-2 2 -27 143t-72.5 190.5t-226.5 49.5t-216.5 -40t-69.5 -189q-10 -46 -14 -99t-9 -62 q-17 -33 -77 -33h-22q-50 0 -94.5 44.5t-44.5 75zM347 1564v8q0 55 61 121.5t124 66.5h42q41 0 128 -43.5t126 -43.5t73 41t73.5 41t39.5 -29v-16q0 -59 -62.5 -116.5t-129.5 -57.5l-9 1q-48 0 -142.5 44.5t-131 44.5t-77 -44.5t-78 -44.5t-37.5 27zM478 582q0 -15 32 -15 l7 -1l6 -1l27 -1h200q60 0 60 18v5q0 77 -146 515q-15 46 -17 46t-15 -39q-154 -462 -154 -522v-5z" />
<glyph unicode="&#xc4;" horiz-adv-x="1349" d="M91 163q0 39 56.5 121t156.5 355.5t145 409.5t77.5 205.5t69.5 95.5t90 26q82 0 137 -113q34 -69 163 -442.5t199 -506.5q10 -18 45 -63t35 -77q0 -63 -84 -106q-29 -15 -115 -15t-108 51q-4 10 -10 56q-25 209 -76.5 262.5t-231 53.5t-217 -38.5t-70.5 -192.5 q-5 -26 -12.5 -91t-9.5 -70q-16 -34 -77 -34t-94 24q-69 50 -69 89zM389 1635v30l5 30q0 68 72 68l21 3h17l27 -4q52 0 52 -62l3 -14v-8l1 -11v-12l-1 -4l-3 -26q-1 -4 -1 -7q0 -71 -69 -71l-14 -3h-35q-14 3 -16 3q-53 0 -53 52q-3 10 -3 14zM481 581q0 -18 72 -18h201 q59 0 59 18v12q0 71 -146 509q-15 46 -18 46t-13 -36t-23 -75.5t-21.5 -73.5t-24.5 -83t-32 -101t-19 -63t-19 -63.5t-16 -66.5v-5zM778 1619v35l4 27q0 37 26.5 58t52.5 21l18 3h18q18 -6 30 -6q49 0 49 -57q4 -14 4 -18l2 -23v-12q0 -61 -22.5 -83.5t-50.5 -22.5 q-6 -2 -10 -2l-18 -2h-18l-28 4q-57 0 -57 78z" />
<glyph unicode="&#xc5;" horiz-adv-x="1351" d="M90 129.5q0 19.5 76 139.5q39 62 140.5 330t147.5 408q86 263 144 309q35 28 90 28q83 0 137 -111q53 -111 106.5 -270.5t145 -401.5t146.5 -330.5t55 -89.5q0 -38 -60 -71t-137 -33t-110 29q-19 17 -19 83t-25 157.5t-67 129t-217.5 37.5t-213.5 -43q-24 -28 -52 -116.5 t-28 -161.5l1 -18l3 -33q0 -36 -19.5 -52t-82.5 -16t-129 52q-32 25 -32 44.5zM487 1638v22q0 64 62.5 112.5t137.5 48.5h27q68 0 123.5 -43.5t55.5 -99.5v-28q0 -53 -57.5 -104t-135.5 -51h-40q-62 0 -117.5 43t-55.5 100zM489 572q0 -17 72 -17h166q87 0 87 24 q0 84 -140 504q-17 51 -19.5 51t-17 -50.5t-38.5 -122.5t-33 -108q-9 -37 -15 -55l-18 -59l-4 -16l-5 -15l-4 -16l-5 -15l-4 -16l-5 -15l-17 -68v-6zM604 1642l4 -23q0 -14 21 -40t32.5 -27t14.5 -1l14 -2h3q34 0 57.5 29.5t23.5 51.5l3 21v18l-1 4v7q-2 6 -2 20.5t-25.5 40 t-49.5 25.5h-15q-30 0 -54 -30.5t-24 -54.5l-2 -14v-25z" />
<glyph unicode="&#xc6;" horiz-adv-x="1829" d="M124 155.5q0 37.5 95.5 166t335.5 643.5q45 98 85 214t62 139q62 65 323 65h193q284 0 366 -25.5t82 -100.5q0 -45 -61 -45l-27 5l-65 17q-71 13 -195 13t-163 -39q-59 -59 -59 -191.5t31 -157.5t82 -25t90 10l33 10q45 14 61 14q48 0 82 -39.5t34 -116.5t-19 -100.5 t-59 -23.5q-6 0 -71 20.5t-111 20.5q-109 0 -147 -38t-38 -171.5t56 -189.5q37 -37 145 -37t210 33.5t125 33.5q68 0 68 -90.5t-102 -116t-341.5 -25.5t-283.5 10q-84 19 -84 61l3 25l9 29l9 34q10 47 10 121.5t-21 108.5q-34 54 -129 54q-183 0 -243 -63l-26 -35 q-35 -51 -85 -153l-60 -126l-9 -22q-14 -27 -61 -27t-88.5 36.5t-41.5 74zM554 636q0 -14 116 -14l14 -1h60q16 2 24 2q66 0 78 27q6 13 6 117l8 208v231q0 24 -10 24q-17 0 -77 -113q-219 -411 -219 -476v-5z" />
<glyph unicode="&#xc7;" horiz-adv-x="1346" d="M92 647v74q0 142 49.5 281.5t142.5 234.5t205 138t234 43t246 -24t145 -36q47 -27 77.5 -90t30.5 -140t-48 -77q-15 0 -96 70q-172 149 -348 149t-284.5 -147.5t-108.5 -411.5q0 -400 230 -525q80 -43 175 -43q151 0 323 102q124 73 131 73q43 0 43 -35v-23 q0 -22 -52.5 -90t-123.5 -108q-150 -85 -310 -85h-9q18 -10 18 -52q0 -12 53 -59.5t53 -99.5v-14l-1 -8q0 -64 -62 -110.5t-164 -46.5h-7l-8 1h-16q-14 2 -21 2q-67 0 -67 32v12q0 37 65 37t97 23t32 58t-37 63.5t-37 67.5t29 80q7 10 21 14q-251 9 -417 183 q-85 89 -134 219t-49 268z" />
<glyph unicode="&#xc8;" horiz-adv-x="1212" d="M154 130q0 20 33 74.5t50 165.5t17 362.5t-14.5 343t-34.5 131.5l-14 25l-16 24q-20 33 -20 49q0 46 75 60q173 33 441 33h154q129 0 176.5 -28t47.5 -119q0 -51 -43 -51q-15 0 -57 13.5t-112.5 28t-225.5 14.5q-93 0 -127 -65q-42 -81 -42 -252q0 -88 137 -88 q65 0 135.5 23t80.5 23q93 0 93 -174q0 -142 -84 -142q-7 0 -82.5 23t-152 23t-108.5 -31t-32 -92q0 -216 57 -294q37 -51 165.5 -51t201.5 18.5t130 39t77 20.5q36 0 36 -72.5t-64.5 -109.5t-251.5 -37h-116q-313 0 -442 38q-68 20 -68 74zM348 1778v9q0 27 65 27h21 q73 0 131 -50.5t166 -189.5q24 -31 24 -51v-4q0 -13 -21 -13h-24q-64 0 -148 65q-214 166 -214 207z" />
<glyph unicode="&#xc9;" horiz-adv-x="1212" d="M158 131q0 18 33.5 72.5t44.5 120.5q29 167 29 472.5t-51 401.5l-31 48q-22 34 -22 48q0 46 71 60q207 40 475 40h77q169 0 210 -24q56 -32 56 -121q0 -50 -40 -50q-12 0 -61.5 17t-114.5 30t-219 13q-95 0 -130 -64q-46 -83 -46 -250q0 -90 135 -90q66 0 134 21.5 t77 21.5q39 0 65.5 -39.5t26.5 -135.5q0 -148 -81 -148q-5 0 -79 21.5t-151 21.5q-143 0 -143 -123q0 -213 60 -292q40 -53 166 -53q182 0 322 54q72 27 88 27q35 0 35 -70t-64.5 -108t-248.5 -38h-117q-295 0 -438 43q-68 20 -68 73zM482 1522v4q0 17 70.5 107.5 t102.5 115.5q82 64 158 64h15q63 0 63 -24v-13q0 -34 -252 -230q-49 -38 -127 -38q-30 0 -30 14z" />
<glyph unicode="&#xca;" horiz-adv-x="1212" d="M156 129q0 22 32.5 77t49 160t16.5 387.5t-26 395.5q-10 41 -40.5 91.5t-30.5 64.5q0 47 73 61q173 33 478 33h115q129 0 177.5 -27.5t48.5 -118.5q0 -52 -42 -52q-15 0 -69 16t-115.5 28.5t-176 12.5t-149.5 -42q-57 -68 -57 -276q0 -89 135 -89q66 0 138 23.5t80 23.5 q40 0 67.5 -37.5t27.5 -134.5q0 -145 -82 -145q-5 0 -84 24q-78 24 -154 24q-140 0 -140 -120q0 -222 55 -296q39 -53 168 -53t199.5 18t127.5 39.5t81 21.5q37 0 37 -63q0 -101 -95 -136q-59 -22 -255 -22h-39q-346 0 -482 38q-69 19 -69 73zM309 1531v5q0 49 204 236 q41 38 101.5 38t97.5 -31q13 -11 185 -200q27 -30 27 -41v-5q0 -16 -59 -16t-129 59q-33 28 -72.5 64t-44.5 36t-100.5 -81t-147.5 -81h-23q-39 0 -39 17z" />
<glyph unicode="&#xcb;" horiz-adv-x="1206" d="M147 125q0 20 32 76t49.5 167.5t17.5 388.5t-26 390q-10 41 -40.5 91.5t-30.5 65.5q0 47 73 61q179 34 480 34h78q169 0 217 -28t48 -117q0 -53 -42 -53q-16 0 -67.5 15.5t-112.5 28t-215 12.5q-95 0 -133.5 -73t-38.5 -244q0 -89 155 -89q49 0 118 22.5t80 22.5 q58 0 84 -66q11 -28 11 -106q0 -145 -83 -145h-1q-8 0 -82 23q-76 24 -154 24q-142 0 -143 -122q0 -217 57 -296q37 -52 191 -52t295 53q66 25 89 25q37 0 37 -64q0 -99 -96 -135q-59 -22 -314.5 -22t-431.5 31q-101 18 -101 81zM317 1628v34l4 26q0 33 25.5 54t64.5 21h21 l26 -4q53 0 53 -62q2 -6 2 -11l2 -18v-20l-4 -30q0 -74 -70 -74l-17 -3h-27l-4 1h-6q-8 2 -10 2q-60 0 -60 84zM707 1632v23q0 106 101 106h24q73 0 73 -66l3 -14v-8l1 -11v-12l-4 -30q0 -34 -23 -57t-49 -23l-16 -3h-28q-76 0 -76 54q-4 14 -4 18z" />
<glyph unicode="&#xcc;" horiz-adv-x="702" d="M83 1787v4q0 29 66 29h21q74 0 121.5 -41.5t123.5 -139t76 -113.5v-7q0 -10 -29 -10h-6q-76 0 -136 47q-237 184 -237 231zM145 1329v15q0 21 21 37q43 33 139 33h91q71 0 113.5 -19t42.5 -47t-41 -94.5t-50.5 -135.5t-9.5 -420t12.5 -413.5t51 -114t38.5 -73.5v-16 q0 -19 -20 -36q-40 -34 -137 -34h-92q-156 0 -156 88q0 9 39.5 71t49 130.5t9.5 408.5t-10 414t-50.5 131t-40.5 75z" />
<glyph unicode="&#xcd;" horiz-adv-x="702" d="M152 89.5q0 28.5 37.5 79.5t49 119t11.5 418t-9.5 421t-49 127t-39.5 75v15q0 20 21 37q41 33 137 33h109q69 0 102 -21.5t33 -50.5t-40 -87.5t-50.5 -136t-10.5 -426t12.5 -413t50 -110t37.5 -77t-20 -47.5q-42 -34 -117 -34h-128q-80 0 -118 34q-18 16 -18 44.5z M216 1523v4q0 14 74 109.5t124.5 139.5t130.5 44h11q70 0 70 -31q0 -47 -231 -227q-68 -53 -140 -53h-15q-24 0 -24 14z" />
<glyph unicode="&#xce;" horiz-adv-x="708" d="M52 1533v5q0 50 201 234q43 39 103 39h8q60 0 101 -41q199 -199 199 -233v-6q0 -15 -43 -15h-16q-56 0 -151 79t-101 79l-71 -54l-24 -22q-14 -14 -18 -17q-85 -65 -133 -65h-15q-40 0 -40 17zM154 1326q0 86 159 86h109q81 0 119 -34q17 -15 17 -44.5t-39 -82t-51 -127 t-12 -412t10 -410.5t51 -131t41 -75v-15q0 -19 -20 -37q-38 -34 -136 -34h-92q-73 0 -114 20.5t-41 54t39.5 87t50 128t10.5 417.5t-11.5 411.5t-50.5 123.5t-39 74z" />
<glyph unicode="&#xcf;" horiz-adv-x="708" d="M66 1632v27l1 4v7q2 8 2 11q0 79 74 79l21 3h17l30 -5q53 0 53 -87v-23l-4 -30q0 -75 -74 -75l-20 -3h-14l-36 6q-43 0 -43 47q-4 14 -4 17zM154 1320v16q0 33 41 54q42 21 113 21h110q141 0 141 -84q0 -23 -39.5 -77.5t-50 -133.5t-10.5 -428t11.5 -409t50.5 -112 q39 -53 39 -89q0 -74 -170 -74h-74q-161 0 -161 85q0 21 38.5 75.5t49 131t10.5 423.5t-10 407t-49.5 122t-39.5 72zM453 1639v4l1 4v8l1 11l4 23q0 69 73 69l17 3h26q9 -3 20 -3q53 0 53 -53q4 -14 4 -17l2 -23v-19l-1 -4l-3 -23q-1 -4 -1 -8q0 -34 -26 -54.5t-62 -20.5 h-29l-3 1h-7q-6 2 -10 2q-59 0 -59 100z" />
<glyph unicode="&#xd0;" horiz-adv-x="1453" d="M140 728.5q0 37.5 15.5 52t58 23.5t56.5 27.5t14 187.5t-42 256.5t-42 95.5q0 42 287 42l118 2h25q168 0 285.5 -48.5t205.5 -150t122.5 -218t34.5 -275.5v-56q0 -143 -54.5 -278t-147.5 -223t-204.5 -127.5t-298.5 -39.5h-70l-24 1h-23q-187 0 -223 8t-36 44q0 14 29 62 q56 97 57 328l2 52v72q0 46 -15.5 62t-59 26.5t-57 23.5t-13.5 50.5zM471 1175q0 -260 36 -322q19 -32 111 -43t110 -19q37 -16 37 -62.5t-27 -60.5q-11 -6 -108 -20.5t-119 -53.5q-38 -68 -38 -360q0 -48 22.5 -67t98.5 -19h18q90 0 182 40q178 77 254 310q37 114 37 238 q0 244 -159 403q-130 130 -325 130h-18q-66 0 -89 -15t-23 -79z" />
<glyph unicode="&#xd1;" horiz-adv-x="1451" d="M112 88q0 11 36.5 69t45.5 116t9 421t-5.5 432t-30 139t-24.5 72q0 40 60 40q181 0 303 -144q15 -18 287.5 -426.5t294.5 -408.5q10 0 10 321t-9 400.5t-18 114.5l-9 30q-13 44 -13 64t24 44.5t88 24.5h37q53 0 86.5 -31t33.5 -62.5t-28 -104.5t-36 -156t-8 -487.5 t-5 -435.5q-11 -68 -55 -68q-102 0 -218 146q-45 57 -306 451t-279 394q-29 -1 -29 -229q0 -420 26 -538.5t26 -126.5q0 -58 -61 -89.5t-147 -31.5t-86 60zM397 1564v16q0 64 83 140q47 43 107 43h18q41 0 140 -46.5t112 -46.5q50 0 92.5 46.5t72.5 46.5h16q27 0 27 -19v-24 q0 -70 -82 -139q-50 -42 -113 -42t-149.5 46t-122.5 46t-87 -46.5t-70 -46.5h-8q-36 0 -36 26z" />
<glyph unicode="&#xd2;" horiz-adv-x="1469" d="M182 703.5q0 314.5 153 526t408 211.5h21q106 0 206 -47t174 -143q156 -202 157 -507v-24q0 -335 -170 -545q-63 -78 -160 -131t-230 -53h-20q-107 0 -211 49q-106 49 -182 152q-146 197 -146 511.5zM400 713q0 -263 94 -424q45 -76 107.5 -119t127.5 -43h27q63 0 124 36 t106 108q98 157 98 394v56q0 255 -107 427q-88 139 -237.5 139t-244.5 -155.5t-95 -418.5zM472 1781v9q0 30 68 30h27q73 0 140 -59q38 -33 152 -180q28 -36 28 -55v-4q0 -13 -26 -13h-22q-62 0 -139 54q-228 160 -228 218z" />
<glyph unicode="&#xd3;" horiz-adv-x="1470" d="M182 680l1 25v24q0 135 43 271q91 290 315 395q96 45 208 45h20q233 0 383 -193t150 -503v-25q0 -146 -40 -282.5t-114 -238t-178.5 -157t-212.5 -55.5h-40q-236 0 -385.5 192t-149.5 502zM399 692q0 -253 98 -409.5t245 -156.5h15q63 0 125 38q119 72 172 266 q32 120 32 254v37q0 125 -28 235q-54 208 -176 290q-60 41 -138 41h-14q-57 0 -120.5 -36t-108.5 -109q-102 -168 -102 -394v-56zM609 1523v9q0 17 73 111t127 136t138 42q15 -3 26 -3q50 0 50 -29v-4q0 -58 -235 -222q-73 -51 -140 -51h-11q-28 0 -28 11z" />
<glyph unicode="&#xd4;" horiz-adv-x="1465" d="M174 657v73q0 136 44 276t123 236q160 198 397 198h21q113 0 216 -51.5t175 -148.5t110 -227t38 -268v-24q0 -308 -149 -512q-71 -97 -174 -156.5t-220 -59.5h-41q-224 0 -373 172q-79 92 -123 227t-44 265zM393 718q0 -387 183 -534q70 -57 146 -57h28q60 0 122 35 t108 109q98 157 98 394v74q0 113 -29 223q-55 207 -174 283q-64 41 -137 41q-160 0 -252.5 -159t-92.5 -409zM430 1532q0 18 28 49q180 197 183 199q39 33 98 33h8q56 0 95 -36q208 -191 208 -241v-5q0 -16 -43 -16h-16q-60 0 -129 58q-117 99 -121 99q-18 0 -104 -78 q-87 -78 -147 -78l-3 -1h-6q-51 0 -51 17z" />
<glyph unicode="&#xd5;" horiz-adv-x="1466" d="M174 658v72q0 136 45 278q87 274 295 381q103 53 225 53h21q224 0 380 -186q72 -86 115.5 -220t43.5 -289v-24q0 -308 -149 -516q-73 -102 -177 -160t-218 -58h-41q-224 0 -373 174q-78 90 -122.5 227t-44.5 268zM395 676q1 -111 29 -221q57 -220 185 -292 q62 -35 128 -35l14 1h13h3q43 0 102 33q121 67 178 270q31 112 31 217v93q0 114 -29 222q-57 213 -184 291q-58 35 -128.5 35t-136.5 -39t-112 -118q-93 -159 -93 -383v-74zM408 1579l1 8v8q0 60 82 129q50 42 108 42h26q40 0 133.5 -44t126.5 -44t80 43t79 43t32 -27v-16 q0 -61 -64 -120t-135 -59h-8q-47 0 -141.5 44.5t-129 44.5t-77.5 -43t-78 -43t-35 34z" />
<glyph unicode="&#xd6;" horiz-adv-x="1466" d="M177 683v24q1 315 161 529q74 100 180 152.5t225 52.5h20q241 0 394 -208q65 -88 103 -217.5t38 -273.5v-24q0 -308 -149 -515q-75 -104 -178.5 -160.5t-215.5 -56.5h-41q-117 0 -216 51q-194 100 -277 354q-44 135 -44 292zM397 692q0 -248 96.5 -406.5t245.5 -158.5h14 q71 0 133.5 42.5t103.5 113.5q91 156 91 401v37q0 227 -86 392q-43 82 -110 128t-131 46h-28q-68 0 -129.5 -42.5t-105.5 -113.5q-94 -154 -94 -402v-37zM450 1636v27l1 4v7q2 8 2 11q0 78 71 78q6 2 10 2l14 2h14q54 0 70 -27t16 -77l-1 -4v-8l-2 -22l-3 -15 q0 -29 -25.5 -49.5t-63.5 -20.5h-21q-20 5 -30 5q-46 0 -46 51q-3 10 -3 14zM837 1636v16l4 31q0 32 24.5 56.5t73.5 24.5h15l28 -4q58 0 58 -65q2 -6 2 -11l2 -19v-20l-4 -31q0 -32 -22.5 -54.5t-54.5 -22.5l-21 -3h-19q-81 0 -81 65l-1 3l-1 4z" />
<glyph unicode="&#xd7;" horiz-adv-x="1249" d="M177 281.5q0 17.5 163.5 161.5t163.5 155t-161.5 153t-161.5 168q0 14 35 45t55.5 31t185 -144.5t171 -144.5t169.5 143.5t193 143.5q17 0 49 -28t32 -46.5t-163.5 -162t-163.5 -157.5q0 -7 163 -150.5t163 -168.5q0 -13 -35.5 -44t-55.5 -31t-185 145t-175.5 145 t-169.5 -144t-184 -144t-56.5 28.5t-31.5 46z" />
<glyph unicode="&#xd8;" horiz-adv-x="1487" d="M170 579v54q0 153 50.5 310.5t148.5 267.5t210.5 161t258.5 51q61 0 160 -21.5t122.5 -21.5t70 36.5t63.5 36.5h15q30 0 30 -45q0 -23 -32 -76t-32 -85.5t26 -91.5t49.5 -136.5t23.5 -190.5v-55q0 -162 -54 -313q-54 -150 -148 -258q-180 -206 -474 -207q-61 0 -149 21 t-121 21t-79.5 -40.5t-79.5 -40.5t-33 44q0 17 36.5 80t36.5 109q0 9 -29 80.5t-33 84.5q-37 119 -37 225zM369 641q0 -165 41 -247q9 -17 14 -17q13 0 122.5 169t267.5 394.5t158 232.5v9q0 35 -51.5 70.5t-113.5 35.5h-33q-79 0 -156 -48q-149 -94 -212 -307 q-34 -117 -34 -211l-2 -28zM532 235q0 -37 57.5 -72t125.5 -35h23q74 0 156 43q147 77 215 309q32 110 32 253v27q0 161 -47 261q-8 16 -14.5 16t-277 -386.5t-270.5 -406.5v-9z" />
<glyph unicode="&#xd9;" horiz-adv-x="1403" d="M114 1283q0 37 39 77t88 40q111 0 158.5 -22.5t47.5 -73.5q0 -14 -11 -52q-10 -38 -18 -72q-20 -90 -20 -444t66 -465q46 -77 111.5 -106t148.5 -29q182 0 263 152q61 114 61 476l-3 186q0 197 -20.5 278t-20.5 96q0 75 139 75q72 0 96 -18q49 -36 49 -74.5t-31 -94 t-39 -106t-8 -342t-22 -402.5q-47 -243 -265 -329q-99 -39 -236.5 -39t-248.5 53q-199 95 -235 363q-15 113 -15 390t-7 313t-37 84.5t-30 85.5zM436 1782v4q0 24 61 24h15q74 0 151 -60q23 -18 151 -164q32 -37 32 -59v-4q0 -14 -30 -14h-16q-10 2 -16 2q-59 0 -149 70 q-199 155 -199 201z" />
<glyph unicode="&#xda;" horiz-adv-x="1405" d="M117 1288q0 38 39 76t88 38q110 0 157 -22.5t47 -74.5q0 -14 -13.5 -60.5t-21.5 -96t-8 -183.5l-2 -37q-1 -24 -1 -73l-2 -75v-74q0 -322 65 -434q78 -135 269 -135q72 0 142.5 37t112.5 116q62 116 62 477l-3 186q0 196 -21.5 276.5t-21.5 108.5q0 66 156 66 q52 0 89.5 -27.5t37.5 -63.5t-31.5 -95.5t-39 -108t-7.5 -342.5q0 -293 -22 -403q-47 -241 -264 -328q-96 -38 -235 -38q-297 0 -420 213q-47 81 -62 195t-15 397.5t-7 320t-37.5 81.5t-30.5 83zM584 1525v8q0 61 178 217q73 64 159 64h16q58 0 58 -26v-4q0 -44 -219 -214 q-75 -58 -149 -58h-10q-33 0 -33 13z" />
<glyph unicode="&#xdb;" horiz-adv-x="1404" d="M114 1285.5q0 37.5 39.5 76t89.5 38.5q112 0 158 -22.5t46 -74.5q0 -16 -10 -49q-37 -122 -37 -496t66 -487q44 -75 111.5 -105t159 -30t155.5 45t98 109q61 114 61 470t-32 495q-15 61 -15 73q0 75 138 75q70 0 107 -28t37 -67t-30 -94.5t-38.5 -110t-8.5 -327.5 q-1 -273 -17 -385q-36 -246 -240 -344q-108 -52 -256 -52q-438 0 -494 417q-13 97 -13 383.5t-7.5 322.5t-37.5 83t-30 84.5zM403 1532q0 52 204 239q40 37 101 37h8q49 0 94 -38q209 -177 209 -230v-5q0 -14 -56 -14t-128 60q-116 97 -125.5 97t-119.5 -101 q-68 -62 -137 -62l-8 1q-42 0 -42 16z" />
<glyph unicode="&#xdc;" horiz-adv-x="1404" d="M113 1284q0 40 38.5 77.5t90.5 37.5q111 0 158 -23.5t47 -75.5q0 -5 -12 -48t-19.5 -81.5t-12.5 -215t-5 -256.5q0 -322 67 -434q79 -134 261 -134q80 0 151.5 38t113.5 117q60 113 60 442l-3 186q0 190 -23 312l-6 28l-7 26q-7 29 -7 57q0 64 158 64q52 0 89.5 -29.5 t37.5 -66.5t-30.5 -93.5t-38.5 -108t-8 -342t-22 -403.5q-48 -248 -269 -332q-98 -37 -235.5 -37t-249 53t-168 153t-69 219t-12.5 393t-7.5 310t-37.5 81.5t-30 85.5zM419 1631v27l5 33q0 67 68 67q6 2 10 2l14 2h11l3 -1q83 0 83 -66q2 -6 2 -11l2 -18v-20q0 -58 -23 -81 t-50 -23l-21 -3h-24q-76 0 -76 66q-2 8 -2 11zM808 1637v3l1 4v8l3 22q1 4 1 7q0 70 64 70l6 2l25 3h11l4 -1l24 -2q9 -3 16 -3q42 0 42 -49q4 -15 4 -19v-9l1 -4v-7l1 -12v-4l-1 -4l-4 -44q0 -20 -27 -42t-61 -22h-29q-75 0 -75 62q-4 12 -4 22z" />
<glyph unicode="&#xdd;" horiz-adv-x="1275" d="M127 1344q0 69 131 69h26q107 0 154 -42q26 -23 26 -95t159 -423q31 -69 36 -69q44 0 135 229.5t91 296t33.5 84.5t131.5 18t98 -56q0 -24 -89 -141q-30 -39 -140 -255t-142.5 -296t-32.5 -220t10.5 -183.5t33 -90.5t22.5 -74t-36 -59.5t-100 -32.5h-80q-61 0 -100.5 22 t-39.5 53.5t24.5 80.5t38 99t13.5 183.5t-69 280t-151 301.5t-97 177q-86 128 -86 143zM528 1529q0 21 26 54q107 137 163.5 186.5t129.5 49.5l10 2h16q65 0 65 -24v-12q0 -37 -232 -217q-68 -53 -137 -53h-16q-25 0 -25 14z" />
<glyph unicode="&#xde;" horiz-adv-x="1232" d="M166 81q0 25 35.5 87t43.5 130q23 207 23 491t-12.5 352t-44 123t-31.5 70q0 65 104 65h42q81 0 140.5 -35t59.5 -84l-7 -39q0 -42 61 -65q6 -2 93 -13.5t157 -33.5t132 -75q128 -109 128 -303t-138 -316q-76 -67 -156 -89.5t-152 -35t-92 -26.5q-54 -37 -54 -88 q0 -8 14 -33.5t14 -43.5q0 -45 -54.5 -73t-124.5 -28h-45q-136 0 -136 63zM464 521q0 -60 67 -60l16 -2h50q124 0 203.5 73t79.5 186l2 20v20l-1 10q0 114 -71 178.5t-182 64.5h-51q-86 0 -101 -39q-7 -18 -7 -144v-147l-1 -9v-18l-1 -28v-17l-1 -9v-18l-1 -9v-18z" />
<glyph unicode="&#xdf;" horiz-adv-x="1179" d="M114 58q0 22 26 72t34 99.5t8 212.5t-16.5 300.5t-16.5 144.5q0 64 44 213t92 208.5t127.5 100.5t189.5 41q161 0 248.5 -84.5t87.5 -203.5q0 -82 -67 -194.5t-67 -153t90.5 -128t134 -161t43.5 -166.5q0 -148 -92 -244q-48 -50 -123 -78.5t-141 -28.5t-103 25.5 t-37 58.5q0 46 95 56t151 63.5t56 136t-34.5 135.5t-82.5 98l-57 50q-38 33 -51 49q-44 53 -44 111t71.5 170t71.5 188t-43 116t-104 40t-117.5 -42t-88 -154t-31.5 -606v-162l2 -151q0 -82 -30 -119q-49 -60 -137.5 -60t-88.5 47z" />
<glyph unicode="&#xe0;" horiz-adv-x="1060" d="M147 247v23q0 117 102 206q61 53 175 92q17 6 99.5 28.5t110.5 38.5q47 27 47 92t-48 102.5t-119.5 37.5t-158.5 -55.5t-130 -55.5q-66 0 -66 72q0 67 141 129q107 47 216 47q200 0 285 -100q68 -78 68 -270l-13 -294q0 -92 11.5 -120t35.5 -64t24 -61.5t-29.5 -48.5 t-80 -23t-98.5 25t-67.5 25t-99.5 -35.5t-137 -35.5h-21q-107 0 -177 63t-70 182zM274 1412v4q0 24 52 24l10 2h26q71 0 121 -44t117.5 -145.5t67.5 -111.5v-4q0 -13 -31 -13h-16q-56 0 -115 46q-232 180 -232 242zM311 246q0 -46 32 -78t80 -32h25q95 0 161 66t66 146 q4 24 4 37l2 30v34q0 37 -31 37h-15q-12 -2 -17 -2q-127 0 -229 -79q-78 -61 -78 -147v-12z" />
<glyph unicode="&#xe1;" horiz-adv-x="1060" d="M146 247v23q0 116 103 206q62 54 175 92q15 5 99 28t121 44.5t37 81t-43 102.5t-119 43t-163 -55.5t-129 -55.5q-67 0 -67 72q0 64 140 129q104 48 251 48t235 -85q45 -43 63.5 -99t18.5 -163l-14 -316q0 -93 12 -122.5t35.5 -61.5t23.5 -59t-30 -51t-78 -24t-99 25.5 t-69.5 25.5t-98.5 -35.5t-137 -35.5h-41q-96 0 -161 67t-65 176zM311 253q0 -50 32.5 -82.5t90.5 -32.5l7 1q92 0 162.5 63t70.5 154l2 12l3 43v45q0 31 -30 31h-16q-10 -2 -17 -2q-109 0 -227 -79q-78 -52 -78 -147v-6zM403 1142.5q0 18.5 40 68.5t48 62.5t50 66.5t43 55 q57 50 128 50h21q66 0 66 -25v-7q0 -33 -233 -240q-55 -49 -120 -49h-10q-33 0 -33 18.5z" />
<glyph unicode="&#xe2;" horiz-adv-x="1047" d="M134 256v23q0 221 321 310q132 34 164 52q47 26 47 90.5t-48 101.5t-119.5 37t-158 -55t-130.5 -55q-65 0 -65 65t117.5 124t231.5 59h51q71 0 137 -25.5t107 -73.5q68 -78 68 -247l-5 -115l-3 -45q-5 -115 -5 -183t12 -95t36 -61t24 -60.5t-28.5 -49.5t-80 -23 t-98.5 25.5t-69 25.5t-101 -35t-137 -35h-21q-106 0 -176.5 63.5t-70.5 181.5zM221 1150.5q0 17.5 190 242.5q40 47 98 47h17q54 0 98 -44q193 -193 193 -245v-5q0 -15 -51 -15h-8q-54 0 -125 65l-54 54q-59 54 -61 54q-13 0 -98.5 -85.5t-142 -85.5t-56.5 17.5zM300 244 q0 -44 34 -74t88 -30h6q92 0 163.5 63.5t71.5 161.5l2 12l2 30v18l1 11q0 53 -32 53h-16q-122 0 -233 -74q-87 -58 -87 -147v-24z" />
<glyph unicode="&#xe3;" horiz-adv-x="1047" d="M134 258v22q0 117 102 206q59 52 174 91q17 6 100.5 28.5t107.5 37.5q46 28 46 92t-49 100.5t-120 36.5t-155.5 -55.5t-130.5 -55.5q-66 0 -66 67t120 124t256 57h25q72 0 138.5 -27.5t105.5 -72.5q67 -77 67 -269l-12 -293q0 -86 12.5 -117t36.5 -63.5t24 -59t-30.5 -50 t-77.5 -23.5t-100 25.5t-73 25.5l-114 -43q-77 -29 -139 -29q-107 0 -177.5 63.5t-70.5 181.5zM191 1194v8q0 65 64 123.5t125 58.5h16q50 0 133 -44t121 -44t82 44t65 44h8q39 0 39 -31v-8q0 -64 -60 -124t-128 -60h-18q-38 0 -134 45t-130 45t-73.5 -43t-74.5 -43t-35 29z M300 240q0 -34 31.5 -65.5t89.5 -31.5h7q18 3 30 3q80 0 141 68.5t61 145.5l2 12l3 43v44q0 31 -40 31q-15 -3 -28 -3q-103 0 -220 -78q-77 -51 -77 -134v-35z" />
<glyph unicode="&#xe4;" horiz-adv-x="1047" d="M132 250v23q0 203 279 298q13 5 97 27.5t122 44.5t38 80.5t-42 102t-120.5 43.5t-165 -55t-130.5 -55q-66 0 -66 73q0 58 116.5 116.5t228.5 58.5t182 -23t116 -77q67 -79 67 -271l-4 -92l-3 -45q-5 -115 -5 -181.5t11 -94t35.5 -62t24.5 -62t-20 -42.5 q-42 -31 -91.5 -31t-98.5 25.5t-65.5 25.5t-103 -36t-173.5 -36t-158 61.5t-71 183.5zM230 1264v19l4 30q0 71 66 71q6 2 10 2l17 2h11l3 -1l23 -3q3 -1 6 -1q54 0 54 -82v-34l-5 -33q0 -64 -65 -64l-13 -3h-6l-11 -1h-3l-4 1h-10l-28 6q-45 0 -45 62q-2 8 -2 11zM300 243 q0 -44 33.5 -73t75.5 -29h31q79 0 149.5 62.5t70.5 148.5q3 18 3 24l3 36v39q0 36 -31 36h-15q-140 0 -243 -80q-77 -60 -77 -135v-29zM608 1262l1 4l3 30q1 4 1 7q0 73 62 73q12 4 16 4l21 2h11q45 0 65.5 -20.5t20.5 -78.5v-11l-1 -4l-3 -31q0 -32 -23 -55t-68 -23h-25 l-24 4q-52 0 -52 55l-4 21v8z" />
<glyph unicode="&#xe5;" horiz-adv-x="1044" d="M130 235v23q0 128 119 220q65 50 216 97t155 49q46 28 46 87.5t-42 103t-116.5 43.5t-168 -56.5t-129.5 -56.5q-67 0 -67 67.5t120 124.5t229 57h50q74 0 140.5 -27t104.5 -72q68 -81 68 -249l-14 -318q0 -94 12.5 -121.5t36 -59.5t23.5 -59t-29 -51.5t-79 -24.5t-102 26 t-69 26t-98 -36t-136 -36h-42q-97 0 -162.5 67.5t-65.5 175.5zM297 242q0 -48 34 -78t76 -30h24q84 0 156 64t72 159l1 6l1 7l3 53v17q0 41 -36 41h-10q-12 -2 -17 -2q-124 0 -213 -69t-89 -138l-2 -12v-18zM311 1288v29q0 56 58.5 108t136.5 52h33q73 0 128 -49t55 -114v-6 q0 -67 -59 -119.5t-150 -52.5h-7q-72 0 -133.5 43t-61.5 109zM426 1300q0 -41 23.5 -70.5t44.5 -29.5l14 -3h16q26 0 54.5 28.5t28.5 73.5v18l-4 27q0 22 -25.5 47.5t-56.5 25.5h-6q-37 0 -61.5 -30.5t-24.5 -51.5l-3 -13v-22z" />
<glyph unicode="&#xe6;" horiz-adv-x="1567" d="M98 311q0 108 115 195q74 55 180 83q30 8 110.5 22t117 32.5t36.5 74.5t-48.5 90t-120.5 34t-156 -57.5t-129 -57.5t-45 62t110 112t220 50t210 -39t101 -39t96 41.5t166 41.5h35q86 0 158 -30q147 -63 203 -198q28 -67 28 -119q0 -87 -62 -110q-37 -14 -238.5 -26 t-217.5 -15q-78 -16 -78 -85.5t62.5 -132t150.5 -62.5t202 40.5t124 40.5q40 0 40 -36q0 -65 -102.5 -120t-220.5 -55h-35q-142 0 -244.5 67.5t-112.5 67.5t-80 -45t-135 -65.5t-177 -20.5t-187.5 75.5t-75.5 183.5zM309 244q0 -41 33.5 -70.5t73.5 -29.5h42q69 0 151 72 q53 46 53 121l1 11l1 6l2 23v12l1 5v12l1 22v5q0 51 -41 51h-11l-6 -1h-5q-128 0 -226 -76q-70 -54 -70 -134v-29zM881 644q0 -26 50 -26h27l5 1l115 4q194 0 194 42v22q-3 15 -3 26q0 57 -53 103t-108 46h-30q-78 0 -137.5 -68t-59.5 -139v-11z" />
<glyph unicode="&#xe7;" horiz-adv-x="1005" d="M93 477q0 218 112 358q63 79 148 118.5t174 39.5h45q134 0 229.5 -55t95.5 -135t-51 -80q-42 0 -133 66t-180 66q-116 0 -187 -132q-40 -74 -40 -235t81 -250.5t211 -89.5q58 0 156.5 40t121.5 40q35 0 35 -44q0 -67 -124 -130.5t-244 -63.5h12q31 0 31 -53 q0 -11 51 -56.5t51 -95.5v-22q0 -65 -59.5 -113.5t-140.5 -48.5h-39q-16 2 -23 2q-81 0 -81 33v12q0 39 66.5 39t94 24.5t27.5 55t-35.5 58t-35.5 54.5q0 57 30 94q14 17 43 17h-15q-98 0 -180 42q-157 81 -219 258q-28 80 -28 187z" />
<glyph unicode="&#xe8;" d="M115 452v24q0 220 146 372q69 71 159 109t180 38h21q129 0 219.5 -84t90.5 -216v-20q0 -93 -60 -124q-39 -20 -243 -39t-243 -33q-66 -23 -66 -88q0 -95 73 -168t205 -73q61 0 164.5 35.5t130.5 35.5q38 0 38 -41q0 -59 -107 -117t-259 -58h-23h-5q-84 0 -164 33 q-162 66 -224 236q-33 90 -33 178zM290 1413q0 31 75 31h16q82 0 134 -59q169 -193 169 -247q0 -13 -30 -13h-15q-54 0 -122 53q-227 177 -227 235zM327 638q0 -23 60 -23h40l6 1l249 9l22 2q41 0 41 37v6l-1 6v5q0 77 -53.5 130.5t-133.5 53.5h-13q-83 0 -150 -67t-67 -155 v-5z" />
<glyph unicode="&#xe9;" d="M117 454v24q1 113 45 215q85 194 275 268q86 33 201 33t203.5 -85t88.5 -234q0 -91 -55 -119t-237 -41t-236 -28q-81 -23 -81 -95q0 -107 79.5 -173t196.5 -66q61 0 162 35.5t129 35.5q37 0 37 -42q0 -64 -115.5 -118.5t-248.5 -54.5h-22q-182 0 -304 126 q-55 57 -86.5 143t-31.5 176zM326 634q0 -23 50 -23h71l6 1l80 4q209 0 209 41v34q0 76 -56.5 125.5t-120.5 49.5h-32q-82 0 -144.5 -71.5t-62.5 -149.5v-11zM423 1136v9q0 47 168 239q51 58 124 58l11 2h21q70 0 70 -25v-9q0 -33 -236 -240q-51 -45 -109 -45h-22 q-27 0 -27 11z" />
<glyph unicode="&#xea;" d="M113 453v24q0 102 38 201q37 98 105 166q150 150 346 151h21q131 0 220.5 -86t89.5 -215v-21q0 -92 -61 -123q-46 -24 -229 -36.5t-241 -27.5q-83 -21 -83 -93q0 -107 80 -173.5t198 -66.5q57 0 160.5 35.5t132.5 35.5q38 0 38 -42q0 -58 -108 -117t-234 -59 q-124 0 -208 30q-166 59 -233 240q-32 87 -32 177zM252 1146.5q0 14.5 28 50.5q125 163 169.5 203.5t101.5 40.5t105.5 -44.5t120.5 -140.5t72 -109.5t-58.5 -13.5t-123.5 65q-109 109 -117.5 109t-96 -87.5t-145.5 -87.5h-16q-40 0 -40 14.5zM327 639q0 -22 54 -22h52l6 1 l97 4q209 0 209 44l-1 6v17q-2 10 -2 16q0 64 -55.5 112.5t-116.5 48.5h-38q-55 0 -128.5 -57t-73.5 -141l-3 -17v-12z" />
<glyph unicode="&#xeb;" horiz-adv-x="1033" d="M100 470q0 223 139 371q64 69 155 112t179 43h43q128 0 215 -87t87 -219v-20q0 -87 -66 -120q-38 -19 -241.5 -38t-245.5 -34q-61 -22 -61 -92q0 -104 94 -180q67 -54 192 -54q42 0 153 35t126 35q46 0 46 -49q0 -64 -121 -116t-238 -52q-324 0 -425 278q-31 85 -31 187z M251 1260v23l1 3l4 29q0 71 90 71h14q82 0 82 -66q2 -8 2 -11l2 -19v-19l-1 -4v-7l-6 -33q0 -59 -65 -59l-17 -3h-27l-3 1h-7q-6 2 -9 2q-56 0 -56 63q-2 6 -2 10zM315 638q0 -20 33 -20l10 -2l23 -1h29l6 1l109 5q205 0 205 33v29q0 69 -49.5 126t-128.5 57h-26 q-86 0 -148.5 -71t-62.5 -146v-11zM629 1255v23l4 29q0 34 25.5 54.5t59.5 20.5h28q79 0 79 -65l4 -22v-31l-3 -26q-1 -4 -1 -7q0 -67 -68 -67l-13 -3h-7l-15 -1l-3 1q-52 0 -71 24t-19 70z" />
<glyph unicode="&#xec;" horiz-adv-x="621" d="M52 1416v4q0 26 66 26h27q10 -2 16 -2q63 0 116 -61q168 -192 168 -243q0 -13 -25 -13h-26q-56 0 -113 50q-229 200 -229 239zM146 927v10q0 28 30.5 43t143.5 15h24q55 0 66 -54q3 -14 3 -291t8 -345.5t36 -131t28 -71.5v-12q0 -26 -32.5 -54t-97.5 -28h-76 q-128 0 -128 85q0 18 21.5 57t22.5 42q26 61 26 136l3 42v218q0 132 -10.5 182t-39 97t-28.5 60z" />
<glyph unicode="&#xed;" horiz-adv-x="621" d="M151 926v10q0 33 41 46t133 13h24q57 0 66 -54q2 -12 2 -189v-278l3 -144q0 -77 34.5 -142.5t34.5 -86.5v-11q0 -37 -52 -68q-26 -15 -91 -15h-51q-140 1 -140 73q0 34 26.5 79t37.5 98t11 257t-10 253t-39.5 100.5t-29.5 58.5zM187 1139v4q0 19 41.5 72.5t80 109 t63.5 76.5q53 46 123 46h16q69 0 69 -25v-8q0 -58 -236 -242q-58 -45 -109 -45h-21q-27 0 -27 12z" />
<glyph unicode="&#xee;" horiz-adv-x="610" d="M14 1150q0 40 196 254q34 37 94 37h8q51 0 87 -32.5t118 -139.5t82 -115v-5q0 -16 -40 -16h-23q-51 0 -137.5 86.5t-94 86.5t-94 -86.5t-141.5 -86.5l-8 1h-7q-40 0 -40 16zM142 930v11q0 35 34 44q51 14 138 14h24q57 0 66 -54q2 -12 2 -304.5t9.5 -353t35.5 -109.5 t26 -71v-12q0 -44 -60 -72q-23 -11 -106 -11h-13q-82 0 -116.5 18.5t-34.5 67.5q0 18 18 52l30 57q23 60 24 113.5t1 67.5l1 43v101q0 185 -10.5 238t-39.5 100.5t-29 59.5z" />
<glyph unicode="&#xef;" horiz-adv-x="609" d="M24 1260v23l6 36q0 64 66 64q6 2 10 2l17 2h11l3 -1l23 -3q3 -1 6 -1q48 0 48 -57q2 -6 2 -10l2 -15v-34l-4 -26q0 -33 -25.5 -53.5t-62.5 -20.5h-20l-26 4q-52 0 -52 61q-2 8 -2 11zM141 929v10q0 35 42 47t132 12h24q52 0 64 -43q5 -18 5 -301t7.5 -347t36 -130.5 t28.5 -73.5q0 -49 -53 -80q-26 -15 -103 -15h-38q-72 0 -106.5 20t-34.5 67q0 16 26.5 66.5t37 102.5t10.5 253t-10.5 252.5t-39 101t-28.5 58.5zM397 1257v19l4 30q0 37 26.5 58t69.5 21h7q85 0 85 -64q2 -6 2 -10l2 -19v-23q0 -107 -90 -107h-25l-27 4q-48 0 -48 52 q-4 12 -4 17z" />
<glyph unicode="&#xf0;" horiz-adv-x="1122" d="M151 387v29q0 117 39 224t111 181q102 105 243 123.5t141 55.5q0 56 -69 107q-38 28 -103 28q-48 -5 -78 -5q-65 0 -65 35q0 20 26 55t26 63t-44.5 68t-44.5 63q0 29 69 29q34 0 113 -36t131 -36l129 19q62 0 62 -44q0 -12 -20 -52t-20 -72t59 -130q128 -216 129 -454 v-58v-7q0 -116 -31 -227q-61 -220 -222 -311q-93 -53 -196 -53h-27q-156 0 -257 117.5t-101 287.5zM352 446q0 -141 58 -237.5t148 -96.5h18q93 0 149.5 101t56.5 246v57q0 147 -47 225q-61 102 -159 102h-9l-9 -1q-87 0 -146.5 -93t-59.5 -258v-45z" />
<glyph unicode="&#xf1;" horiz-adv-x="1157" d="M105 108q0 30 24 67t36 97t12 270t-21 279.5t-21 87.5q0 52 132 52q48 0 91.5 -32.5t50 -32.5t100 49.5t175.5 49.5q162 0 242 -122q61 -93 61 -328.5t9.5 -276.5t36 -84t26.5 -71t-25.5 -53.5t-61.5 -25.5q-198 0 -198 97q0 16 10 74t10 259t-25.5 271.5t-62 98 t-93 27.5t-110 -32.5t-84.5 -93.5q-47 -92 -47 -342q0 -97 14 -163t14 -100q0 -36 -56 -61t-147.5 -25t-91.5 64zM254 1192v8q0 74 84 145q48 41 105 41h17q50 0 134 -44.5t123 -44.5t82 43t77 43t34 -31v-8q0 -64 -79 -136q-45 -41 -104 -41t-154.5 45t-126.5 45 t-77.5 -46.5t-65.5 -46.5h-15q-34 0 -34 28z" />
<glyph unicode="&#xf2;" horiz-adv-x="1123" d="M156 465v53q0 94 32 190q65 196 225 275q70 35 150 35h29q168 0 282 -133q51 -59 83 -152.5t32 -175.5v-70q0 -204 -115 -351q-50 -64 -127 -105.5t-164 -41.5h-44q-81 0 -155 40q-137 75 -196 245q-32 93 -32 191zM313 1414q0 31 74 31h16q108 0 183 -120q5 -8 20 -27 t31.5 -42.5t44 -59t27.5 -54.5v-4q0 -14 -30 -14h-21q-51 0 -114 49q-231 180 -231 241zM353 476q0 -147 59.5 -253t151.5 -106h27q77 0 138.5 92.5t61.5 224.5l2 24v72q0 136 -59.5 242t-150.5 106h-27q-84 0 -142.5 -97.5t-58.5 -221.5l-2 -23v-60z" />
<glyph unicode="&#xf3;" horiz-adv-x="1119" d="M151 462v35l1 18q0 109 36 205q74 197 236 267q70 31 153 31h15q167 0 280 -131q57 -66 85 -160t28 -184v-35l-1 -17q0 -204 -117 -352q-51 -65 -129.5 -107.5t-162.5 -42.5h-30l-15 1q-82 0 -155 40q-135 73 -193 241q-31 90 -31 191zM348 501l1 -12l2 -58 q0 -122 64 -217.5t144 -95.5h27q83 0 142.5 99t59.5 253v48q0 156 -61.5 258.5t-157.5 102.5h-9q-95 0 -153.5 -103.5t-58.5 -262.5v-12zM441 1137v8q0 11 67 111.5t118.5 145.5t122.5 45h17q71 0 71 -29q0 -37 -229 -241q-59 -52 -118 -52h-22q-27 0 -27 12z" />
<glyph unicode="&#xf4;" horiz-adv-x="1112" d="M142 483v18q0 217 118 368q56 71 134.5 112t158.5 41h29q181 0 291 -142q109 -142 109 -350l-1 -18q0 -106 -31.5 -207t-91.5 -167q-128 -142 -301 -142h-15q-82 0 -158 34q-156 69 -214 261q-28 93 -28 192zM268 1149q0 15 30 51q168 201 174 207q38 35 95 35l8 -1h8 q45 0 84 -39q198 -198 198 -250q0 -20 -44 -20h-15q-54 0 -125 65q-24 22 -66 64t-51.5 42t-71 -61.5t-94.5 -84.5t-81.5 -23t-48.5 15zM341 491l1 -12q0 -160 62.5 -260t148.5 -100h27q88 0 145.5 102.5t57.5 238.5v72q0 137 -59.5 243t-151.5 106h-27q-88 0 -146 -103 t-58 -240v-47z" />
<glyph unicode="&#xf5;" horiz-adv-x="1110" d="M142 466v52q0 208 126 364q49 60 125 99.5t158 39.5h30q164 0 273 -121q52 -57 88 -149t36 -187v-69q0 -99 -32 -192q-65 -188 -214 -268q-76 -41 -162 -41h-45q-82 0 -156 40q-138 76 -195 242q-32 93 -32 190zM239 1195v8q0 55 58.5 119t122.5 64h34q39 0 128 -44.5 t124 -44.5t75.5 44t75.5 44t35 -21v-16q0 -68 -76 -138q-50 -46 -121 -46l-9 1q-41 0 -135.5 44.5t-127 44.5t-73 -44t-76 -44t-35.5 29zM340 516l1 -12v-12q0 -160 59.5 -265.5t150.5 -105.5h28q87 0 144 101.5t57 239.5v72q0 155 -64.5 252t-154.5 97h-9 q-92 0 -152 -100.5t-60 -266.5z" />
<glyph unicode="&#xf6;" horiz-adv-x="1110" d="M144 464v52q0 205 116 353q59 76 137.5 113.5t153.5 37.5h29l15 -1h4q79 0 149 -39q138 -75 196 -244q32 -93 32 -192v-52q0 -205 -116 -353q-55 -70 -131 -109.5t-159 -39.5h-44q-77 0 -153 38t-132 114q-97 131 -97 322zM278 1265v15l1 4v8l6 32q0 58 59 58l26 5h21 l29 -5q53 0 53 -90v-16l-2 -15v-7q-2 -8 -2 -11q0 -72 -62 -72q-9 -3 -13 -3l-17 -2h-17l-3 1h-7q-15 5 -22 5q-45 0 -45 57l-1 3l-1 4zM341 491q0 -159 60 -266t160 -107h9q97 0 154.5 102.5t57.5 261.5v24q0 161 -60 267.5t-150 106.5h-18l-9 -1q-88 0 -146 -103t-58 -250 v-35zM656 1249v34q0 46 20.5 71.5t52.5 25.5l18 3h28q15 -5 27 -5q54 0 54 -85v-31l-4 -30q0 -69 -63 -69l-31 -5h-14l-27 4q-61 0 -61 87z" />
<glyph unicode="&#xf7;" horiz-adv-x="1240" d="M138 584v41q0 47 36 51q40 4 479 4l23 1h275q149 0 166 -8t17 -46v-10l-1 -10v-10q0 -47 -32 -51.5t-482 -4.5h-172l-46 -1h-45q-173 0 -195.5 6.5t-22.5 37.5zM513 243v3l1 4l2 16q0 33 26 54.5t83 21.5h21q62 0 86 -24t24 -55q2 -6 2 -10l1 -14l-1 -3v-7l-2 -13 q0 -21 -20.5 -46.5t-60.5 -25.5l-15 -3h-8l-13 -1h-4l-4 1h-9l-12 1l-23 4q-71 0 -71 73q-2 8 -2 10zM517 991v7l4 28q0 66 77 66l3 1l4 1l28 2h9l4 -1l24 -2q4 -1 7 -1q35 0 56 -26t21 -64v-18l-1 -3v-7q-2 -8 -2 -10q0 -70 -77 -70q-8 -2 -12 -2l-20 -2h-16l-32 4 q-74 0 -74 72q-2 8 -2 11z" />
<glyph unicode="&#xf8;" horiz-adv-x="1142" d="M156 411v39q0 104 38 210q77 214 265 299q84 38 195 38l163 -13q41 0 66 21q58 48 74 48q42 0 42 -51q0 -15 -27.5 -58t-27.5 -63.5t21.5 -68.5t37.5 -96t16 -159.5t-40 -222t-115 -188.5t-160.5 -110.5t-205.5 -32.5l-131 12q-49 0 -92.5 -36.5t-60.5 -36.5 q-43 0 -43 32.5t29.5 80t29.5 66.5t-20.5 62.5t-37 93.5t-16.5 134zM345 449l1 -8l1 -23l3 -37q0 -80 24 -80h3l104 150q240 347 240 361v6q0 13 -27.5 35t-70.5 22h-28q-40 0 -91.5 -30t-87.5 -89q-71 -115 -71 -284v-23zM454 178q0 -11 28 -33.5t66 -22.5l14 -2h15l7 1 q98 0 174 101.5t76 267.5v58l-2 24l-2 31q0 93 -29 93h-4q-5 0 -174 -244.5t-169 -261.5v-12z" />
<glyph unicode="&#xf9;" horiz-adv-x="1155" d="M101 924q0 49 78 49q113 0 147.5 -38.5t34.5 -188.5l2 -56l1 -84q0 -266 38 -366t150 -100q52 0 104 30t82 86q48 92 48 261t-17.5 253t-17.5 100q0 99 189 99q32 0 42 -20t10 -124l-13 -393q0 -170 27 -243t27 -88t-16 -30q-34 -33 -101 -33t-114 32.5t-58 32.5t-38 -16 l-21 -13q-106 -67 -197 -67q-183 0 -262 139q-52 92 -52 357t-36.5 335t-36.5 86zM310 1411v8q0 24 62 24h21q74 0 128 -47q5 -4 147 -187q36 -46 36 -64v-4q0 -14 -30 -14h-21q-50 0 -109 46q-234 182 -234 238z" />
<glyph unicode="&#xfa;" horiz-adv-x="1155" d="M101 921q0 50 75 50q132 0 164 -55q24 -41 24 -305t36.5 -367t150.5 -103q52 0 103.5 28t83.5 86q49 88 49 261.5t-18 256.5t-18 96q0 51 42.5 76t143.5 25q34 0 44.5 -19.5t10.5 -116t-7 -189t-7 -237.5t26.5 -216.5t26.5 -81.5q0 -70 -142 -70q-49 0 -88 33t-53 33 t-40 -15l-22 -13q-39 -24 -46 -28q-77 -41 -151 -41h-27q-79 0 -140 39t-95 97q-52 88 -52 315t-12 290.5t-37 106.5t-25 64zM449 1140v4q0 44 174 243q50 57 123 57l11 2h26q61 0 61 -27q0 -62 -233 -243q-63 -49 -114 -49h-16q-32 0 -32 13z" />
<glyph unicode="&#xfb;" horiz-adv-x="1143" d="M92 926q0 50 75 50q132 0 163 -55q23 -40 23 -304t36 -368q37 -104 150 -104q50 0 103 28.5t84 86.5q48 92 48 330q0 100 -17 180.5t-17 102.5q0 100 188 100q34 0 44.5 -20t10.5 -141l-13 -368q0 -180 26.5 -250.5t26.5 -81.5q0 -69 -143 -69q-45 0 -86 33t-54.5 33 t-40.5 -15l-22 -13q-37 -22 -46 -27q-75 -40 -151 -40h-27q-155 0 -241 146q-47 80 -47 308t-11 286.5t-36.5 105t-25.5 66.5zM267 1152q0 13 25 43q155 186 187.5 216t85.5 30h8q50 0 94 -40t120.5 -139.5t76.5 -106.5v-5q0 -16 -42 -16h-16q-55 0 -149.5 87t-101 87 t-110.5 -104q-65 -65 -121.5 -65t-56.5 13z" />
<glyph unicode="&#xfc;" horiz-adv-x="1149" d="M101 923q0 49 78 49q112 0 147 -39t35 -190l2 -56l1 -84q0 -272 35 -360q42 -107 155 -107q51 0 104 29.5t83 87.5q47 90 47 262.5t-17 253t-17 101.5q0 51 44.5 75t143.5 24q33 0 43 -20.5t10 -118.5l-2 -100q0 -17 -2 -52l-2 -26q-8 -100 -8 -247.5t26.5 -219t26.5 -87 t-16 -31.5q-32 -32 -128 -32q-44 0 -85.5 32t-56.5 32q-16 0 -58 -26q-114 -70 -204 -70h-27q-78 0 -140 41t-94 98q-52 92 -52 355.5t-36 338.5t-36 87zM285 1251v34l4 26q0 70 68 70l21 3h24q79 0 79 -88v-30l-6 -37q0 -66 -94 -66h-3l-17 2h-7q-6 2 -10 2q-59 0 -59 84z M669 1259v23l5 33q0 65 65 65q6 2 10 2l14 2h20l30 -5q48 0 48 -58l4 -21v-31l-3 -26q-1 -4 -1 -17.5t-19.5 -37.5t-63.5 -24h-31q-72 0 -72 56q-4 14 -4 17z" />
<glyph unicode="&#xfd;" horiz-adv-x="1040" d="M116 922q0 62 154 62q86 0 116 -66q11 -24 17.5 -103.5t34.5 -178.5q97 -341 110 -341q33 0 120 324q45 168 45 279q0 90 105 90q58 0 84 -14t26 -51t-42 -119.5t-73 -176.5q-223 -683 -283 -797q-123 -235 -280 -235h-1h-25q-106 0 -106 54q0 40 24.5 61.5t100 46 t119.5 78.5q70 85 70 200q0 60 -107.5 351t-122.5 322q-86 183 -86 214zM413 1145v4q0 49 170 243q53 61 132 61h27q65 0 65 -28q0 -60 -225 -235q-73 -57 -127 -57h-15q-27 0 -27 12z" />
<glyph unicode="&#xfe;" horiz-adv-x="1162" d="M148 1337q0 51 92 51h24q95 0 118 -53q13 -29 13 -199t39 -170q11 0 31 7l20 8q78 33 164 33t158.5 -41t119.5 -108q93 -132 93 -349.5t-118 -372.5q-53 -68 -128.5 -111t-165.5 -43l-73 3q-52 0 -89.5 -26.5t-37.5 -73t26 -100t26 -86.5t-57.5 -59.5t-129.5 -26.5h-25 q-99 0 -99 56q0 24 18.5 66t28.5 82q36 135 36 692v87l-1 30v58l-4 176q0 109 -13 224.5t-22 143t-26.5 62t-17.5 40.5zM418 447l1 -11l3 -83q1 -10 1 -20q0 -92 45.5 -150t118.5 -58h34q83 0 144 101.5t61 275.5l-1 12l-2 58q0 109 -59 197.5t-143 88.5h-25q-78 0 -138 -90 q-36 -54 -36 -181l-2 -21v-21l-2 -55v-43z" />
<glyph unicode="&#xff;" horiz-adv-x="1051" d="M127 905q0 43 32.5 59.5t115.5 16.5t114 -62q11 -21 19 -100t68 -297.5t75 -218.5q35 0 127 337q39 143 39 221t24 100.5t72 22.5h24q93 0 93 -67q0 -28 -41 -112t-71 -170q-260 -754 -287 -804q-60 -113 -132.5 -168t-140.5 -55q-127 0 -127 67q0 56 93 83.5t139 81.5 q74 88 74 177.5t-107 378.5t-115 306q-88 191 -88 203zM263 1252v23l5 33q0 67 66 67q8 2 10 2l14 2h11l3 -1q82 0 82 -65l3 -15v-7l1 -11v-16l-1 -4v-7l-7 -36q0 -60 -87 -60h-14q-81 0 -81 63q-3 10 -3 14zM651 1245v34q0 51 22.5 73.5t48.5 22.5l31 4l3 -1l24 -2 q3 -1 6 -1q55 0 55 -59l1 -4l1 -3l3 -34v-7l-1 -4v-11q-3 -16 -3 -19q0 -36 -26 -56.5t-66 -20.5h-14q-48 0 -66.5 23t-18.5 65z" />
<glyph unicode="&#x152;" horiz-adv-x="1935" d="M176 714q0 158 44 286q84 247 299 351q117 56 234 56h42q84 0 180.5 -11t169 -11t158 8t175 8t172.5 -39t83 -83q0 -22 -134 -22l-36 1q-37 1 -75 1q-173 0 -232 -56t-59 -225q0 -120 101 -120q47 0 107 16t75 16q70 0 101 -56q18 -32 18 -108t-24.5 -105t-56.5 -29 t-92 18t-122 19q-122 0 -122 -125q0 -220 58 -284q44 -48 202 -48q94 0 178 8.5t97 8.5q51 0 51 -20q0 -46 -95.5 -95.5t-195.5 -49.5h-37q-8 0 -151 13.5t-188 13.5t-151.5 -12t-214 -12t-217 49t-193 142t-116.5 215.5t-33 280.5zM377 707q0 -245 97 -404q44 -72 107 -114 t135 -42h27q109 0 150 72q58 102 58 374l2 32l1 32v32l1 33l-1 17v32l-1 32l-2 79q0 230 -54 324q-43 75 -149 75h-27q-68 0 -132.5 -40t-109.5 -114q-102 -168 -102 -403v-17z" />
<glyph unicode="&#x153;" horiz-adv-x="1701" d="M105 510v29v5v4q0 68 31 148q62 158 217 231q89 41 196 41h30q133 0 243 -80q63 -46 78.5 -46t65.5 37q118 88 280 88t269 -104.5t107 -237.5q0 -89 -69 -117q-45 -18 -245 -28.5t-226 -16.5q-60 -15 -60 -82t68 -133t155.5 -66t206 44t125.5 44q32 0 32 -35 q0 -62 -108 -121.5t-249.5 -59.5t-235.5 61.5t-98 61.5q-32 0 -61 -20q-85 -59 -90 -61q-89 -41 -196 -41q-206 0 -336 130t-130 325zM344 512l1 -12q0 -171 65.5 -269t155.5 -98t145.5 92.5t55.5 242.5v70q0 146 -56 246t-141 100h-26q-75 0 -137.5 -94t-62.5 -255v-23z M1014 654q0 -25 54 -25h90l6 1l188 5l21 2q46 0 46 37v11l-1 5l-2 21q0 60 -56 109t-121 49h-24q-75 0 -137 -62t-62 -126l-2 -11v-16z" />
<glyph unicode="&#x178;" horiz-adv-x="1272" d="M116 1332q0 52 42 68q28 11 130.5 11t140.5 -50q16 -21 20.5 -78.5t30.5 -124.5q141 -360 184 -360q37 0 196 385q22 54 33 119t12 67q25 45 120 45h26q106 0 106 -57v-19q0 -17 -83 -123q-27 -35 -113 -192t-151 -294t-65 -277.5t7 -180t28.5 -91t21.5 -70.5 q0 -52 -53 -82q-33 -19 -95 -19h-80q-51 0 -84 26.5t-33 71.5q0 16 24.5 68.5t35.5 109t11 177t-71.5 269t-146 287t-101.5 175.5q-93 126 -93 139zM356 1641v15l4 30q0 32 23.5 55.5t51.5 23.5q14 4 17 4h33q73 0 73 -58q3 -10 3 -14l2 -18v-23q0 -54 -27.5 -81.5 t-75.5 -27.5h-18l-28 4q-54 0 -54 61q-2 8 -2 11zM748 1648v8l1 4l3 26q1 4 1 7q0 69 70 69q8 2 11 2l15 2h29l24 -4q51 0 51 -56q4 -14 4 -18v-38q0 -52 -26 -78t-56 -26l-21 -3h-23q-15 5 -27 5q-52 0 -52 67l-3 14v8z" />
<glyph unicode="&#x2c6;" horiz-adv-x="893" d="M129 1207q0 32 210 242q47 47 103 47h17q49 0 101 -48q204 -187 204 -235v-6q0 -19 -58 -19l-8 1h-8q-53 0 -144.5 84.5t-104.5 84.5t-98 -85t-142 -85h-24q-48 0 -48 19z" />
<glyph unicode="&#x2dc;" horiz-adv-x="937" d="M118 1262v8q0 62 86 130q57 45 119 45h8q53 0 153 -47t135 -47t81.5 42.5t83.5 42.5t37 -36v-8q0 -59 -68 -116.5t-128 -57.5h-18l-9 1q-48 0 -140 46t-132 46t-86 -42t-93 -42q-29 0 -29 35z" />
<glyph unicode="&#x2000;" horiz-adv-x="910" />
<glyph unicode="&#x2001;" horiz-adv-x="1821" />
<glyph unicode="&#x2002;" horiz-adv-x="910" />
<glyph unicode="&#x2003;" horiz-adv-x="1821" />
<glyph unicode="&#x2004;" horiz-adv-x="607" />
<glyph unicode="&#x2005;" horiz-adv-x="455" />
<glyph unicode="&#x2006;" horiz-adv-x="303" />
<glyph unicode="&#x2007;" horiz-adv-x="303" />
<glyph unicode="&#x2008;" horiz-adv-x="227" />
<glyph unicode="&#x2009;" horiz-adv-x="364" />
<glyph unicode="&#x200a;" horiz-adv-x="101" />
<glyph unicode="&#x2010;" horiz-adv-x="746" d="M91 524v20l1 7v13l2 26q0 34 40 40t248 6l139 2h86q49 0 49 -57l-1 -6v-13q0 -69 -38 -78q-24 -6 -261 -6h-14l-22 -1h-22l-22 -1h-15l-21 -1h-22l-29 -1h-49q-49 0 -49 50z" />
<glyph unicode="&#x2011;" horiz-adv-x="746" d="M91 524v20l1 7v13l2 26q0 34 40 40t248 6l139 2h86q49 0 49 -57l-1 -6v-13q0 -69 -38 -78q-24 -6 -261 -6h-14l-22 -1h-22l-22 -1h-15l-21 -1h-22l-29 -1h-49q-49 0 -49 50z" />
<glyph unicode="&#x2012;" horiz-adv-x="746" d="M91 524v20l1 7v13l2 26q0 34 40 40t248 6l139 2h86q49 0 49 -57l-1 -6v-13q0 -69 -38 -78q-24 -6 -261 -6h-14l-22 -1h-22l-22 -1h-15l-21 -1h-22l-29 -1h-49q-49 0 -49 50z" />
<glyph unicode="&#x2013;" horiz-adv-x="1109" d="M80 539v50q0 37 21.5 47t118.5 10h653q108 0 133 -7.5t25 -41.5v-31q0 -46 -21.5 -56t-107.5 -10h-299l-11 1h-133l-44 -1h-209q-126 0 -126 39z" />
<glyph unicode="&#x2014;" horiz-adv-x="1841" d="M67 552v33q0 40 46 48.5t419 8.5h75l18 -1l317 -1q761 0 777 -2q56 -7 56 -52v-17q0 -46 -16 -55.5t-50 -12.5t-810 -3h-37l-18 -1h-93l-74 -1h-337q-208 0 -234 6q-39 9 -39 50z" />
<glyph unicode="&#x2018;" horiz-adv-x="638" d="M228 1088v16l1 8q0 109 44.5 191.5t98 122.5t74.5 40h11q21 0 21 -27v-10q0 -15 -26 -49q-65 -88 -65 -160q0 -7 43.5 -61.5t43.5 -119.5q0 -110 -103 -110h-21q-68 0 -95 37t-27 122z" />
<glyph unicode="&#x2019;" horiz-adv-x="635" d="M159 954v15q0 2 48 74t48 120q0 5 -39.5 64.5t-39.5 121.5q0 114 102 114h28q52 0 80.5 -25.5t28.5 -96.5v-55q-3 -21 -3 -38q0 -105 -80.5 -212t-137.5 -107h-12q-23 0 -23 25z" />
<glyph unicode="&#x201a;" horiz-adv-x="587" d="M160 -220q0 3 43.5 74t43.5 125q0 18 -16.5 42.5t-30.5 55.5t-14 87.5t24.5 84t64.5 27.5h28q55 0 82.5 -24.5t27.5 -82.5v-46l-1 -7l-1 -22l-2 -30q0 -87 -74 -207t-137 -120h-12q-26 0 -26 33v10z" />
<glyph unicode="&#x201c;" horiz-adv-x="953" d="M222 1092v39q0 113 63 215q37 60 85.5 92.5t64.5 32.5h12q24 0 24 -35q0 -10 -46 -79t-46 -109t12.5 -54.5t24.5 -24t17 -17.5q31 -52 31 -117q0 -98 -99 -98h-28q-61 0 -88 34t-27 121zM610 1076v62q2 14 2 23q0 105 64 190q91 121 147 121q27 0 27 -26v-10 q0 -14 -25 -46q-72 -91 -72 -160q0 -32 24.5 -50.5t29.5 -26.5q33 -55 33 -109q0 -106 -94 -107h-27q-107 0 -107 124z" />
<glyph unicode="&#x201d;" horiz-adv-x="955" d="M131 959v14q0 2 47.5 73t47.5 129q0 4 -51 77q-27 39 -27 103.5t30 88.5t85 24h8q62 0 89.5 -27.5t27.5 -118.5v-16l-1 -8v-15q-2 -16 -2 -23q0 -107 -82.5 -217.5t-143.5 -110.5q-28 0 -28 27zM513 955v14q0 13 27.5 47t35.5 45q39 59 39 115q0 9 -39 59.5t-39 120.5 q0 111 98 111h27q56 0 78.5 -28.5t22.5 -104.5v-30q0 -109 -50.5 -202.5t-101 -131.5t-69.5 -38h-6q-23 0 -23 23z" />
<glyph unicode="&#x201e;" horiz-adv-x="914" d="M135 -218q0 3 42.5 75.5t42.5 123.5q0 11 -32.5 65t-32.5 115t25 89t86 28h14q67 0 89.5 -28t22.5 -93v-46q0 -108 -48.5 -198t-98 -130.5t-74.5 -40.5h-6q-30 0 -30 35v5zM523 -222q0 14 26 48q67 89 67 160q0 16 -27 52l-16 25q-21 46 -21 106q0 109 93 109h26 q46 0 69.5 -21t23.5 -70l2 -14l1 -22v-23q0 -122 -60 -233q-82 -152 -148 -152h-11q-25 0 -25 30v5z" />
<glyph unicode="&#x2022;" horiz-adv-x="960" d="M233 658v28q0 106 72 184.5t157 78.5h33q95 0 164.5 -82t69.5 -196v-9q0 -107 -69.5 -189.5t-160.5 -82.5h-32q-90 0 -162 79t-72 189z" />
<glyph unicode="&#x2026;" horiz-adv-x="1798" d="M197 175v23l1 5v9q2 8 2 13q0 50 32 76.5t78 26.5h18q50 0 79 -24.5t29 -68.5l4 -31v-14l-4 -36q0 -40 -27 -67t-65 -27l-25 -3h-12l-5 1h-8q-8 2 -12 2q-36 0 -60.5 29.5t-24.5 85.5zM787 184v14q0 129 116 129h12q64 0 87 -32t23 -82v-37q-3 -15 -3 -22q0 -45 -31 -71 t-77 -26h-21l-28 4q-31 0 -52.5 25.5t-21.5 61.5q-2 8 -2 13zM1377 168v36q3 12 3 22q0 47 30.5 72.5t65.5 25.5l26 3h4l4 -1h4q101 0 101 -94l3 -27v-19l-4 -31q0 -33 -24 -62t-64 -29l-29 -4h-16q-104 0 -104 108z" />
<glyph unicode="&#x202f;" horiz-adv-x="364" />
<glyph unicode="&#x2039;" horiz-adv-x="723" d="M121 551q0 12 183.5 218.5t223.5 206.5h9q34 0 34 -39.5t-130.5 -204.5t-130.5 -183q0 -7 129.5 -171t129.5 -208t-39 -44h-9q-43 0 -221.5 201t-178.5 224z" />
<glyph unicode="&#x203a;" horiz-adv-x="721" d="M152 172.5q0 43.5 131 201t131 171.5t-129.5 178t-129.5 208t43 44t221 -200.5t178 -228.5t-183 -222.5t-217 -194.5h-9q-36 0 -36 43.5z" />
<glyph unicode="&#x205f;" horiz-adv-x="455" />
<glyph unicode="&#x20ac;" horiz-adv-x="1237" d="M113 819q0 29 53.5 78t130.5 171q136 215 307 271q90 29 180 29q285 0 285 -143q0 -58 -58 -58q-10 0 -88 18t-114 18q-95 0 -170 -53t-75 -106t31.5 -75t109 -35.5t98.5 -22.5q50 -21 50 -55.5t-68 -51.5q-39 -10 -171 -20.5t-150 -18.5q-38 -17 -38 -61t57 -59 q14 -4 68 -9l35 -3q207 -17 207 -62t-57 -70l-30 -9l-31 -8l-30 -7q-68 -18 -96 -43q-28 -26 -28 -84t91 -113.5t203 -55.5q50 0 133 14t95 14q48 0 48 -28q0 -70 -96 -123.5t-267 -53.5t-309 119q-67 58 -99.5 116t-63.5 129.5t-43.5 90t-54.5 50.5t-42 70q0 16 43 50 t43 46q0 54 -27 80l-23 14l-22 10q-17 11 -17 40z" />
<glyph unicode="&#x2122;" horiz-adv-x="1728" d="M106 1344.5q0 64.5 46 77.5q21 6 226 6l151 1h27q53 0 75.5 -16t22.5 -72t-29 -56l-35 11q-44 22 -98 22q-34 0 -45 -58q-5 -27 -5 -183.5t3 -206t20 -90.5t17 -56q0 -43 -59 -43h-82q-65 0 -65 50q0 11 11 35t20 51t9 227t-6 225q-12 48 -50 48q-32 0 -80.5 -18.5 t-51.5 -18.5q-22 0 -22 64.5zM784 747q0 4 21 61t21 243t-2.5 211t-12 69.5t-9.5 47.5q0 32 68 32q100 0 149 -79q17 -27 94 -211.5t78 -184.5q12 0 88.5 183t96.5 214q48 75 146 75q58 0 58 -35l-8 -42q-10 -57 -10 -247.5t19.5 -260t19.5 -80.5q0 -35 -78 -35 q-92 0 -92 99l2 22l1 24q4 60 4 205t-22 145q-11 0 -90 -201t-99 -232.5t-53.5 -31.5t-127.5 235t-106 235q-19 0 -19 -254q0 -32 2 -84l5 -93q0 -67 -89 -67q-55 0 -55 37z" />
<glyph unicode="&#xe000;" horiz-adv-x="1000" d="M0 0v1000h1000v-1000h-1000z" />
</font>
</defs>
</svg>
